<?xml version="1.0" encoding="UTF-8" standalone="no"?>
<!-- Created with Inkscape (http://www.inkscape.org/) -->

<svg
   width="48"
   height="48"
   viewBox="0 0 12.7 12.7"
   version="1.1"
   id="svg4296"
   inkscape:version="1.1.1 (3bf5ae0d25, 2021-09-20)"
   sodipodi:docname="gramps-avatars-man.svg"
   inkscape:export-filename="C:\Users\bjpco\Documents\FAMILY TREE DATA\Barrie Phelan - Family Tree 2020\sources\gramps-avatars-man.png"
   inkscape:export-xdpi="150"
   inkscape:export-ydpi="150"
   xmlns:inkscape="http://www.inkscape.org/namespaces/inkscape"
   xmlns:sodipodi="http://sodipodi.sourceforge.net/DTD/sodipodi-0.dtd"
   xmlns="http://www.w3.org/2000/svg"
   xmlns:svg="http://www.w3.org/2000/svg">
  <sodipodi:namedview
     id="namedview4298"
     pagecolor="#ededed"
     bordercolor="#666666"
     borderopacity="1.0"
     inkscape:pageshadow="2"
     inkscape:pageopacity="0"
     inkscape:pagecheckerboard="0"
     inkscape:document-units="px"
     showgrid="true"
     units="px"
     inkscape:showpageshadow="false"
     showguides="true"
     inkscape:guide-bbox="true"
     inkscape:zoom="4.5060426"
     inkscape:cx="38.503853"
     inkscape:cy="29.848808"
     inkscape:window-width="1920"
     inkscape:window-height="1001"
     inkscape:window-x="-9"
     inkscape:window-y="-9"
     inkscape:window-maximized="1"
     inkscape:current-layer="layer1"
     inkscape:snap-global="false">
    <inkscape:grid
       type="xygrid"
       id="grid4462"
       spacingx="0.26458333"
       spacingy="0.26458333"
       empspacing="10"
       originx="0"
       originy="0" />
    <sodipodi:guide
       position="0.26458333,0.26458349"
       orientation="1,0"
       id="guide4464" />
    <sodipodi:guide
       position="0.26458333,12.435417"
       orientation="0,-1"
       id="guide4466" />
    <sodipodi:guide
       position="12.435417,0.26458349"
       orientation="0,-1"
       id="guide4468" />
    <sodipodi:guide
       position="12.435417,12.435417"
       orientation="1,0"
       id="guide4470" />
    <sodipodi:guide
       position="6.3499999,0.26458349"
       orientation="1,0"
       id="guide9974" />
    <sodipodi:guide
       position="12.435417,6.3500001"
       orientation="0,-1"
       id="guide9976" />
  </sodipodi:namedview>
  <defs
     id="defs4293" />
  <g
     inkscape:label="Layer 1"
     inkscape:groupmode="layer"
     id="layer1">
    <path
       style="fill:#000000;fill-opacity:1;stroke:none;stroke-width:0.0264583;stroke-linecap:butt;stroke-linejoin:miter;stroke-miterlimit:4;stroke-dasharray:none;stroke-opacity:1"
       d="m 7.7030433,2.4006534 c 0,0 -0.533352,-0.27827 -1.089893,-0.200973 -0.55654,0.0773 -0.633836,-0.0773 -0.819351,0.0077 -0.185513,0.08503 -0.486971,0.432865 -0.50243,0.587459 -0.01545,0.154595 0.0773,0.239622 -0.06184,0.479243 -0.139134,0.239621 -0.284185,0.657882 -0.206887,0.943882 0.0773,0.286 -0.07221,0.260314 -0.133222,0.439738 -0.06102,0.179424 -0.30693,0.595838 -0.225591,0.6806 0.08134,0.08476 0.28423,0.02373 0.295351,0.143427 0.01112,0.119698 -0.03968,0.217078 -0.01256,0.25485 0.02712,0.03777 0.149036,0.04155 0.149036,0.04155 0,0 -0.08378,0.101784 -0.08566,0.150533 -0.0019,0.04875 0.07784,0.08494 0.154185,0.169811 0.07635,0.08488 -0.08483,0.317685 0.0079,0.45682 0.09276,0.139135 0.170133,0.13819 0.372345,0.135327 0.202212,-0.0029 0.31215,0.327608 0.31215,0.327608 0,0 -0.107317,0.07573 -0.173872,0.111752 -0.06656,0.03603 -0.200315,0.491148 -0.239813,0.719056 -0.590505,0.609785 -1.379915,1.8673399 -1.72648,2.9311256 -0.346566,1.063785 -0.286889,1.342201 -0.217729,1.655378 2.114549,0 1.644977,-2.130683 4.904371,-2.186373 0.825313,0 0.845155,-0.5632754 0.850889,-0.8010861 0.0057,-0.2378108 -0.03862,-0.8826925 -0.458318,-1.3220375 -0.4197,-0.439345 -0.141841,-0.623797 -0.141841,-0.623797 l -0.425136,-1.329512 -0.237424,-0.06228 c 0,0 0.327416,-0.314722 0.288768,-0.399749 -0.03865,-0.08503 -0.113179,-0.195 -0.03588,-0.380513 0.0773,-0.185513 1.004866,-2.009728 -0.541078,-2.929565 z"
       id="path5051"
       sodipodi:nodetypes="csccsszzzzczzszczczcczzcccsscc" />
  </g>
</svg>
