<?xml version="1.0" encoding="UTF-8" standalone="no"?>
<!-- Created with Inkscape (http://www.inkscape.org/) -->

<svg
   width="48"
   height="48"
   viewBox="0 0 12.7 12.7"
   version="1.1"
   id="svg4296"
   inkscape:version="1.1.1 (3bf5ae0d25, 2021-09-20)"
   sodipodi:docname="gramps-avatars-gran.svg"
   xmlns:inkscape="http://www.inkscape.org/namespaces/inkscape"
   xmlns:sodipodi="http://sodipodi.sourceforge.net/DTD/sodipodi-0.dtd"
   xmlns="http://www.w3.org/2000/svg"
   xmlns:svg="http://www.w3.org/2000/svg">
  <sodipodi:namedview
     id="namedview4298"
     pagecolor="#ededed"
     bordercolor="#666666"
     borderopacity="1.0"
     inkscape:pageshadow="2"
     inkscape:pageopacity="1"
     inkscape:pagecheckerboard="0"
     inkscape:document-units="px"
     showgrid="true"
     units="px"
     inkscape:showpageshadow="false"
     showguides="true"
     inkscape:guide-bbox="true"
     inkscape:zoom="4.5060426"
     inkscape:cx="-3.1069391"
     inkscape:cy="29.848808"
     inkscape:window-width="1920"
     inkscape:window-height="1001"
     inkscape:window-x="-9"
     inkscape:window-y="-9"
     inkscape:window-maximized="1"
     inkscape:current-layer="layer1"
     inkscape:snap-global="false">
    <inkscape:grid
       type="xygrid"
       id="grid4462"
       spacingx="0.26458333"
       spacingy="0.26458333"
       empspacing="10"
       originx="0"
       originy="0" />
    <sodipodi:guide
       position="0.26458333,0.26458349"
       orientation="1,0"
       id="guide4464" />
    <sodipodi:guide
       position="0.26458333,12.435417"
       orientation="0,-1"
       id="guide4466" />
    <sodipodi:guide
       position="12.435417,0.26458349"
       orientation="0,-1"
       id="guide4468" />
    <sodipodi:guide
       position="12.435417,12.435417"
       orientation="1,0"
       id="guide4470" />
    <sodipodi:guide
       position="6.3499999,0.26458349"
       orientation="1,0"
       id="guide9974" />
    <sodipodi:guide
       position="12.435417,6.3500001"
       orientation="0,-1"
       id="guide9976" />
  </sodipodi:namedview>
  <defs
     id="defs4293" />
  <g
     inkscape:label="Layer 1"
     inkscape:groupmode="layer"
     id="layer1">
    <path
       id="path17383"
       style="fill:#000000;fill-opacity:1;stroke:none;stroke-width:0.0264583;stroke-linecap:butt;stroke-linejoin:miter;stroke-miterlimit:4;stroke-dasharray:none;stroke-opacity:1"
       d="M 8.1593723,0.89826352 C 7.9765595,0.89785782 7.7737024,1.0567581 7.7737024,1.0567581 L 6.9236436,1.7324725 c 0,0 -0.2384359,0.1023949 -0.5964675,0.051246 C 5.9691445,1.7325715 5.4577018,1.9371272 5.2531119,2.0394227 5.048523,2.1417253 4.842466,1.9660197 4.7158161,2.0309727 c -0.05031,0.0258 0.014793,0.2749677 -0.071319,0.3581976 C 4.4456783,2.5813325 4.2995168,3.0125743 4.297922,3.147302 4.296282,3.2820285 4.229557,3.4021251 4.214979,3.5150091 4.2004,3.6278922 4.3882021,3.7859125 4.291584,3.9550953 4.194962,4.1242791 3.8501162,4.425468 3.8821403,4.5087692 c 0.03202,0.083296 0.1403587,0.1033775 0.2387979,0.1294373 0.098442,0.02606 0.00317,0.3650565 0.041211,0.3714053 0.038042,0.00634 0.1040784,0.054417 0.1040784,0.054417 0,0 -0.091664,0.045137 -0.09879,0.1061913 -0.00716,0.061054 0.059286,0.101545 0.081359,0.1801551 0.022083,0.078611 -0.013945,0.1317522 -0.039095,0.2810637 -0.02515,0.1493114 0.4516688,0.3177254 0.7021306,0.3291401 0,0 -0.011921,0.2161584 0.075552,0.2387981 0.087462,0.022635 0.1292498,-0.2217814 0.2144955,0.016906 0.085244,0.2386875 0.076523,0.7533278 -0.033809,1.0233457 -0.1103321,0.2700182 -0.5210384,0.4774397 -0.4913329,0.5351831 0.02971,0.057743 0.2522489,0.010091 0.2863474,0.1294371 0.034095,0.1193439 -0.6479798,0.7161317 -1.0571586,1.1253106 -0.4091789,0.4091787 0.051496,1.1935414 0.2731386,1.6879654 0.2216387,0.494424 -0.079774,1.610789 -0.020079,1.676872 0.059705,0.06609 0.5522856,0.08264 1.5606422,-0.187552 C 6.727985,11.936656 7.0782079,11.068778 7.8101698,10.81949 8.5285885,10.574814 8.8826043,10.093991 8.9508013,9.6677638 9.0190013,9.2415309 8.5603918,8.8589403 8.3358424,8.4288606 8.1112921,7.9987808 7.6157491,7.0494304 7.6157491,7.0494304 c 0,0 0.062445,-0.091753 0.080827,-0.168004 0.018382,-0.076251 -0.273706,-0.6069618 -0.3312532,-0.6054489 -0.057548,0.00151 -0.1347203,-0.02536 -0.1347203,-0.02536 0,0 -0.1701173,-0.3860811 -0.1701173,-0.4945026 0,-0.1084216 0.010602,-0.3383152 0.204457,-0.4775966 C 7.3834687,5.2170303 7.4638868,5.0326539 7.6173285,4.9303589 7.7707692,4.8280645 7.8608813,4.6566917 7.8608813,4.6566917 c 0,0 0.1494126,0.125174 0.2055152,0.093511 C 8.1225035,4.7185377 8.0422485,4.6476366 8.0991525,4.5499714 8.1560565,4.4523094 8.3121032,4.3435088 8.4996148,4.2107934 9.0330188,3.8332655 8.8247709,3.0536179 8.8588693,2.6955873 8.8929648,2.3375558 8.604635,2.0073721 8.6179583,1.8545101 8.6349089,1.6600641 8.4987296,1.2461057 8.3754616,1.027169 8.3215734,0.93146062 8.2424772,0.89844812 8.1593805,0.89826042 Z M 7.278143,6.3673786 c 0.077648,0.017387 0.3333807,0.3589097 0.3011398,0.52673 C 7.5470378,7.0619286 5.1501304,7.7190558 5.2340931,7.6136733 5.3180591,7.5082908 5.7138602,7.2894499 6.5089165,7.0462633 7.3039738,6.8030765 7.2447735,6.3599058 7.278143,6.3673786 Z" />
  </g>
</svg>
