<?xml version="1.0" encoding="UTF-8" standalone="no"?>
<!-- Created with Inkscape (http://www.inkscape.org/) -->

<svg
   sodipodi:docname="gramps-address.svg"
   inkscape:version="1.1.1 (3bf5ae0d25, 2021-09-20)"
   sodipodi:version="0.32"
   id="svg5816"
   height="48px"
   width="48px"
   inkscape:export-filename="/home/benny/programms/gramps/myicons/16x16/gramps-address.png"
   inkscape:export-xdpi="30"
   inkscape:export-ydpi="30"
   version="1.1"
   xmlns:inkscape="http://www.inkscape.org/namespaces/inkscape"
   xmlns:sodipodi="http://sodipodi.sourceforge.net/DTD/sodipodi-0.dtd"
   xmlns:xlink="http://www.w3.org/1999/xlink"
   xmlns="http://www.w3.org/2000/svg"
   xmlns:svg="http://www.w3.org/2000/svg"
   xmlns:rdf="http://www.w3.org/1999/02/22-rdf-syntax-ns#"
   xmlns:cc="http://creativecommons.org/ns#"
   xmlns:dc="http://purl.org/dc/elements/1.1/">
  <defs
     id="defs3">
    <linearGradient
       id="linearGradient2624">
      <stop
         id="stop2626"
         offset="0"
         style="stop-color:#dfe0df;stop-opacity:1;" />
      <stop
         style="stop-color:#a6b0a6;stop-opacity:1;"
         offset="0.23809524"
         id="stop2630" />
      <stop
         id="stop2628"
         offset="1.0000000"
         style="stop-color:#b5beb5;stop-opacity:1.0000000;" />
    </linearGradient>
    <linearGradient
       inkscape:collect="always"
       id="linearGradient2573">
      <stop
         style="stop-color:#ffffff;stop-opacity:1;"
         offset="0"
         id="stop2575" />
      <stop
         style="stop-color:#ffffff;stop-opacity:0;"
         offset="1"
         id="stop2577" />
    </linearGradient>
    <linearGradient
       id="linearGradient2274">
      <stop
         style="stop-color:#000000;stop-opacity:0.12871288;"
         offset="0.0000000"
         id="stop2276" />
      <stop
         style="stop-color:#000000;stop-opacity:0.0000000;"
         offset="1.0000000"
         id="stop2278" />
    </linearGradient>
    <linearGradient
       id="linearGradient9749">
      <stop
         style="stop-color:#ffffff;stop-opacity:1;"
         offset="0"
         id="stop9751" />
      <stop
         style="stop-color:#ededed;stop-opacity:1.0000000;"
         offset="1.0000000"
         id="stop9753" />
    </linearGradient>
    <linearGradient
       id="linearGradient15107">
      <stop
         style="stop-color:#ffffff;stop-opacity:1.0000000;"
         offset="0.0000000"
         id="stop15109" />
      <stop
         style="stop-color:#e2e2e2;stop-opacity:1.0000000;"
         offset="1.0000000"
         id="stop15111" />
    </linearGradient>
    <linearGradient
       id="linearGradient10691"
       inkscape:collect="always">
      <stop
         id="stop10693"
         offset="0"
         style="stop-color:#000000;stop-opacity:1;" />
      <stop
         id="stop10695"
         offset="1"
         style="stop-color:#000000;stop-opacity:0;" />
    </linearGradient>
    <linearGradient
       id="linearGradient4274">
      <stop
         id="stop4276"
         offset="0.0000000"
         style="stop-color:#ffffff;stop-opacity:0.25490198;" />
      <stop
         id="stop4278"
         offset="1.0000000"
         style="stop-color:#ffffff;stop-opacity:1.0000000;" />
    </linearGradient>
    <linearGradient
       inkscape:collect="always"
       id="linearGradient2187">
      <stop
         style="stop-color:#ffffff;stop-opacity:1;"
         offset="0"
         id="stop2189" />
      <stop
         style="stop-color:#ffffff;stop-opacity:0;"
         offset="1"
         id="stop2191" />
    </linearGradient>
    <linearGradient
       id="linearGradient6901"
       inkscape:collect="always">
      <stop
         id="stop6903"
         offset="0"
         style="stop-color:#3465a4;stop-opacity:1;" />
      <stop
         id="stop6905"
         offset="1"
         style="stop-color:#3465a4;stop-opacity:0;" />
    </linearGradient>
    <linearGradient
       id="linearGradient6925"
       inkscape:collect="always">
      <stop
         id="stop6927"
         offset="0"
         style="stop-color:#204a87;stop-opacity:1;" />
      <stop
         id="stop6929"
         offset="1"
         style="stop-color:#204a87;stop-opacity:0;" />
    </linearGradient>
    <linearGradient
       inkscape:collect="always"
       xlink:href="#linearGradient6901"
       id="linearGradient2562"
       gradientUnits="userSpaceOnUse"
       gradientTransform="matrix(0,1,-1,0,37.07553,-5.879343)"
       x1="14.751649"
       y1="15.868432"
       x2="12.252101"
       y2="30.55784" />
    <linearGradient
       inkscape:collect="always"
       xlink:href="#linearGradient6925"
       id="linearGradient2564"
       gradientUnits="userSpaceOnUse"
       gradientTransform="matrix(0,1,-1,0,37.07553,-5.879343)"
       x1="12.25"
       y1="18.25"
       x2="9.5821323"
       y2="27.057337" />
    <linearGradient
       inkscape:collect="always"
       xlink:href="#linearGradient2187"
       id="linearGradient2566"
       gradientUnits="userSpaceOnUse"
       gradientTransform="matrix(-1.412791e-16,0.914114,-0.914114,-1.412791e-16,39.78243,-9.748047)"
       x1="33.059906"
       y1="27.394117"
       x2="12.624337"
       y2="12.583769" />
    <linearGradient
       inkscape:collect="always"
       xlink:href="#linearGradient4274"
       id="linearGradient2365"
       gradientUnits="userSpaceOnUse"
       gradientTransform="matrix(0,1,-1,0,37.07553,-5.879343)"
       x1="32.058014"
       y1="8.6689339"
       x2="27.90929"
       y2="18.068739" />
    <linearGradient
       inkscape:collect="always"
       xlink:href="#linearGradient15107"
       id="linearGradient1483"
       gradientUnits="userSpaceOnUse"
       gradientTransform="matrix(1.343475,0,0,1.505846,2.879511,-2.266018)"
       x1="11.572842"
       y1="4.7461626"
       x2="18.475286"
       y2="26.022910" />
    <linearGradient
       inkscape:collect="always"
       xlink:href="#linearGradient15107"
       id="linearGradient1493"
       gradientUnits="userSpaceOnUse"
       gradientTransform="matrix(1.276531,0,0,-1.406115,24.24763,33.3374)"
       x1="11.74217"
       y1="11.48487"
       x2="13.846983"
       y2="11.981981" />
    <radialGradient
       inkscape:collect="always"
       xlink:href="#linearGradient10691"
       id="radialGradient8621"
       gradientUnits="userSpaceOnUse"
       gradientTransform="matrix(2.003784,0,0,1.4,27.98813,-17.4)"
       cx="4.9929786"
       cy="43.5"
       fx="4.9929786"
       fy="43.5"
       r="2.5" />
    <radialGradient
       inkscape:collect="always"
       xlink:href="#linearGradient10691"
       id="radialGradient8623"
       gradientUnits="userSpaceOnUse"
       gradientTransform="matrix(2.003784,0,0,1.4,-20.01187,-104.4)"
       cx="4.9929786"
       cy="43.5"
       fx="4.9929786"
       fy="43.5"
       r="2.5" />
    <linearGradient
       inkscape:collect="always"
       xlink:href="#linearGradient3702"
       id="linearGradient8625"
       gradientUnits="userSpaceOnUse"
       x1="25.058096"
       y1="47.027729"
       x2="25.058096"
       y2="39.999443" />
    <linearGradient
       id="linearGradient3702">
      <stop
         style="stop-color:black;stop-opacity:0;"
         offset="0"
         id="stop3704" />
      <stop
         id="stop3710"
         offset="0.5"
         style="stop-color:black;stop-opacity:1;" />
      <stop
         style="stop-color:black;stop-opacity:0;"
         offset="1"
         id="stop3706" />
    </linearGradient>
    <linearGradient
       inkscape:collect="always"
       xlink:href="#linearGradient8590"
       id="linearGradient8627"
       gradientUnits="userSpaceOnUse"
       x1="-29.375"
       y1="9.25"
       x2="-6.0322471"
       y2="96.366341" />
    <linearGradient
       inkscape:collect="always"
       id="linearGradient8590">
      <stop
         style="stop-color:#eeeeec;stop-opacity:1;"
         offset="0"
         id="stop8592" />
      <stop
         style="stop-color:#ffffff;stop-opacity:1"
         offset="1"
         id="stop8594" />
    </linearGradient>
    <linearGradient
       inkscape:collect="always"
       xlink:href="#linearGradient6394"
       id="linearGradient8629"
       gradientUnits="userSpaceOnUse"
       gradientTransform="matrix(2.074373,0,0,2.0817457,117.14774,1.0694405)"
       x1="-21.478369"
       y1="-0.80551612"
       x2="-21.478369"
       y2="18.005089" />
    <linearGradient
       inkscape:collect="always"
       id="linearGradient6394">
      <stop
         style="stop-color:#729fcf;stop-opacity:1"
         offset="0"
         id="stop6396" />
      <stop
         style="stop-color:#ffffff;stop-opacity:1"
         offset="1"
         id="stop6398" />
    </linearGradient>
    <linearGradient
       inkscape:collect="always"
       xlink:href="#linearGradient6754"
       id="linearGradient8631"
       gradientUnits="userSpaceOnUse"
       gradientTransform="matrix(2.1639996,0,0,4.4339333,123.33198,-38.376868)"
       x1="-21.03125"
       y1="16.187811"
       x2="-21.03125"
       y2="14.13769" />
    <linearGradient
       inkscape:collect="always"
       id="linearGradient6754">
      <stop
         style="stop-color:#2b2840;stop-opacity:1"
         offset="0"
         id="stop6756" />
      <stop
         style="stop-color:#729fcf;stop-opacity:0.66334653"
         offset="1"
         id="stop6758" />
    </linearGradient>
    <radialGradient
       inkscape:collect="always"
       xlink:href="#linearGradient2573"
       id="radialGradient8633"
       gradientUnits="userSpaceOnUse"
       gradientTransform="matrix(2.8659614,0,0,1.4416275,33.120814,-14.79452)"
       cx="-17.75"
       cy="33.5"
       fx="-17.75"
       fy="33.5"
       r="18" />
    <radialGradient
       inkscape:collect="always"
       xlink:href="#linearGradient10691"
       id="radialGradient1481"
       gradientUnits="userSpaceOnUse"
       gradientTransform="matrix(3.181887,0,0,1.1739897,2.6727249,-46.910174)"
       cx="6.702713"
       cy="73.615715"
       fx="6.702713"
       fy="73.615715"
       r="7.228416" />
  </defs>
  <sodipodi:namedview
     inkscape:window-y="-9"
     inkscape:window-x="-9"
     inkscape:window-height="1001"
     inkscape:window-width="1920"
     inkscape:document-units="px"
     inkscape:grid-bbox="true"
     showgrid="true"
     inkscape:current-layer="g9622"
     inkscape:cy="29.485887"
     inkscape:cx="36.72121"
     inkscape:zoom="6.4268035"
     inkscape:pageshadow="2"
     inkscape:pageopacity="1"
     borderopacity="0.70588235"
     bordercolor="#666666"
     pagecolor="#ededed"
     id="base"
     inkscape:grid-points="true"
     gridtolerance="2"
     inkscape:object-bbox="true"
     inkscape:object-points="true"
     objecttolerance="2"
     guidetolerance="2"
     showguides="true"
     inkscape:guide-bbox="true"
     inkscape:showpageshadow="false"
     inkscape:pagecheckerboard="0"
     inkscape:window-maximized="1">
    <inkscape:grid
       id="GridFromPre046Settings"
       type="xygrid"
       originx="0"
       originy="0"
       spacingx="1"
       spacingy="1"
       color="#3f3fff"
       empcolor="#3f3fff"
       opacity="0.15"
       empopacity="0.38"
       empspacing="4" />
    <sodipodi:guide
       position="1,47"
       orientation="1,0"
       id="guide32038" />
    <sodipodi:guide
       position="47,47"
       orientation="0,-1"
       id="guide32040" />
    <sodipodi:guide
       position="47,1"
       orientation="1,0"
       id="guide32042" />
    <sodipodi:guide
       position="1,1"
       orientation="0,-1"
       id="guide32044" />
  </sodipodi:namedview>
  <metadata
     id="metadata4">
    <rdf:RDF>
      <cc:Work
         rdf:about="">
        <dc:format>image/svg+xml</dc:format>
        <dc:type
           rdf:resource="http://purl.org/dc/dcmitype/StillImage" />
        <dc:title>Mail Reply</dc:title>
        <dc:creator>
          <cc:Agent>
            <dc:title>Garrett LeSage</dc:title>
          </cc:Agent>
        </dc:creator>
        <dc:contributor>
          <cc:Agent>
            <dc:title>Jakub Steiner, Andreas Nilsson</dc:title>
          </cc:Agent>
        </dc:contributor>
        <cc:license
           rdf:resource="http://creativecommons.org/licenses/by-sa/2.0/" />
        <dc:subject>
          <rdf:Bag>
            <rdf:li>mail</rdf:li>
            <rdf:li>e-mail</rdf:li>
            <rdf:li>reply</rdf:li>
            <rdf:li>sender</rdf:li>
          </rdf:Bag>
        </dc:subject>
      </cc:Work>
      <cc:License
         rdf:about="http://creativecommons.org/licenses/by-sa/2.0/">
        <cc:permits
           rdf:resource="http://web.resource.org/cc/Reproduction" />
        <cc:permits
           rdf:resource="http://web.resource.org/cc/Distribution" />
        <cc:requires
           rdf:resource="http://web.resource.org/cc/Notice" />
        <cc:requires
           rdf:resource="http://web.resource.org/cc/Attribution" />
        <cc:permits
           rdf:resource="http://web.resource.org/cc/DerivativeWorks" />
        <cc:requires
           rdf:resource="http://web.resource.org/cc/ShareAlike" />
      </cc:License>
    </rdf:RDF>
  </metadata>
  <g
     inkscape:groupmode="layer"
     inkscape:label="Layer 1"
     id="layer1">
    <ellipse
       style="color:#000000;display:inline;overflow:visible;visibility:visible;opacity:0.2;fill:url(#radialGradient1481);fill-opacity:1;fill-rule:nonzero;stroke:none;stroke-width:1.30813;stroke-linecap:butt;stroke-linejoin:miter;stroke-miterlimit:4;stroke-dashoffset:0;stroke-opacity:1;marker:none;marker-start:none;marker-mid:none;marker-end:none"
       id="path10699"
       inkscape:r_cx="true"
       inkscape:r_cy="true"
       cx="24"
       cy="39.513912"
       rx="23"
       ry="8.4860868" />
    <g
       id="g9622"
       transform="matrix(1.0035578,0,0,1.0050527,-1.0889979,4.4013899)"
       style="stroke-width:0.864821">
      <g
         id="g2570"
         transform="matrix(1.0011887,0,0,1.0024191,0.14241458,-9.0172563)"
         inkscape:r_cx="true"
         inkscape:r_cy="true"
         style="display:inline;stroke-width:0.993921;stroke-miterlimit:4;stroke-dasharray:none">
        <path
           id="path12723"
           d="M 6.34375,15.454879 V 41.44216 H 43.3125 L 43.25,15.554447 c -1.3e-5,-0.0057 3.74e-4,-0.02709 0,-0.03319 -7.31e-4,-0.0065 0.0011,-0.02633 0,-0.03319 -0.0014,-0.0072 -0.02946,-0.02558 -0.03125,-0.03319 z"
           style="display:inline;fill:url(#linearGradient1483);fill-opacity:1;fill-rule:evenodd;stroke:#888a85;stroke-width:0.993921;stroke-linecap:butt;stroke-linejoin:round;stroke-miterlimit:4;stroke-dasharray:none;stroke-opacity:1"
           inkscape:r_cx="true"
           inkscape:r_cy="true" />
        <path
           id="path15103"
           d="m 7.3198141,16.451386 0.015625,23.990153 H 42.336604 l -0.0075,-23.990557 z"
           style="display:inline;fill:none;fill-opacity:0.75;fill-rule:evenodd;stroke:#ffffff;stroke-width:0.993921;stroke-linecap:square;stroke-linejoin:miter;stroke-miterlimit:4;stroke-dasharray:none;stroke-opacity:1;paint-order:markers fill stroke"
           inkscape:r_cx="true"
           inkscape:r_cy="true"
           sodipodi:nodetypes="ccccc" />
      </g>
      <g
         id="g8834"
         transform="matrix(0.23987632,0,0,0.23987632,44.677885,8.1859925)"
         style="stroke-width:0.864821">
        <g
           transform="matrix(1.1842105,0,0,0.9999996,-63.921053,-1.9999825)"
           style="opacity:0.2;stroke-width:0.864821"
           id="g8559">
          <rect
             style="opacity:1;fill:url(#radialGradient8621);fill-opacity:1;stroke:none;stroke-width:0.864821;stroke-linecap:round;stroke-linejoin:miter;stroke-miterlimit:4;stroke-dasharray:none;stroke-opacity:1"
             id="rect8561"
             width="5"
             height="7"
             x="38"
             y="40" />
          <rect
             style="opacity:1;fill:url(#radialGradient8623);fill-opacity:1;stroke:none;stroke-width:0.864821;stroke-linecap:round;stroke-linejoin:miter;stroke-miterlimit:4;stroke-dasharray:none;stroke-opacity:1"
             id="rect8563"
             width="5"
             height="7"
             x="-10"
             y="-47"
             transform="scale(-1)" />
          <rect
             style="opacity:1;fill:url(#linearGradient8625);fill-opacity:1;stroke:none;stroke-width:0.864821;stroke-linecap:round;stroke-linejoin:miter;stroke-miterlimit:4;stroke-dasharray:none;stroke-opacity:1"
             id="rect8565"
             width="28"
             height="7.0000005"
             x="10"
             y="40" />
        </g>
        <g
           transform="translate(-10)"
           id="g8513"
           style="stroke-width:0.864821">
          <path
             style="display:inline;opacity:1;fill:url(#linearGradient8627);fill-opacity:1;stroke:#979894;stroke-width:0.830189;stroke-linecap:round;stroke-linejoin:bevel;stroke-miterlimit:4;stroke-dasharray:none;stroke-dashoffset:0.7;stroke-opacity:1;paint-order:markers fill stroke"
             d="m -44.5,42.5 v -3 h 0.53125 c 0.259687,0 0.46875,-0.209063 0.46875,-0.46875 v -1.0625 C -43.5,37.709063 -43.709063,37.5 -43.96875,37.5 H -44.5 v -2 h 0.53125 c 0.259687,0 0.46875,-0.209063 0.46875,-0.46875 v -1.0625 C -43.5,33.709063 -43.709063,33.5 -43.96875,33.5 H -44.5 v -2 h 0.53125 c 0.259687,0 0.46875,-0.209063 0.46875,-0.46875 v -1.0625 C -43.5,29.709063 -43.709063,29.5 -43.96875,29.5 H -44.5 v -2 h 0.53125 c 0.259687,0 0.46875,-0.209063 0.46875,-0.46875 v -1.0625 C -43.5,25.709063 -43.709063,25.5 -43.96875,25.5 H -44.5 v -2 h 0.53125 c 0.259687,0 0.46875,-0.209063 0.46875,-0.46875 v -1.0625 C -43.5,21.709063 -43.709063,21.5 -43.96875,21.5 H -44.5 v -2 h 0.53125 c 0.259687,0 0.46875,-0.209063 0.46875,-0.46875 v -1.0625 C -43.5,17.709063 -43.709063,17.5 -43.96875,17.5 H -44.5 v -2 h 0.53125 c 0.259687,0 0.46875,-0.209063 0.46875,-0.46875 v -1.0625 C -43.5,13.709062 -43.709063,13.5 -43.96875,13.5 H -44.5 v -2 h 0.53125 c 0.259687,0 0.46875,-0.209062 0.46875,-0.46875 V 9.96875 C -43.5,9.709062 -43.709063,9.5 -43.96875,9.5 H -44.5 v -4 h 4 v 0.53125 c 0,0.259688 0.209063,0.46875 0.46875,0.46875 h 1.0625 C -38.709063,6.5 -38.5,6.290938 -38.5,6.03125 V 5.5 h 2 v 0.53125 c 0,0.259688 0.209063,0.46875 0.46875,0.46875 h 1.0625 C -34.709063,6.5 -34.5,6.290938 -34.5,6.03125 V 5.5 h 2 v 0.53125 c 0,0.259688 0.209063,0.46875 0.46875,0.46875 h 1.0625 C -30.709063,6.5 -30.5,6.290938 -30.5,6.03125 V 5.5 h 2 v 0.53125 c 0,0.259688 0.209063,0.46875 0.46875,0.46875 h 1.0625 C -26.709063,6.5 -26.5,6.290938 -26.5,6.03125 V 5.5 h 2 v 0.53125 c 0,0.259688 0.209063,0.46875 0.46875,0.46875 h 1.0625 C -22.709063,6.5 -22.5,6.290938 -22.5,6.03125 V 5.5 h 2 v 0.53125 c 0,0.259688 0.209063,0.46875 0.46875,0.46875 h 1.0625 C -18.709063,6.5 -18.5,6.290938 -18.5,6.03125 V 5.5 h 2 v 0.53125 c 0,0.259688 0.209063,0.46875 0.46875,0.46875 h 1.0625 C -14.709062,6.5 -14.5,6.290938 -14.5,6.03125 V 5.5 h 2 v 0.53125 c 0,0.259688 0.209062,0.46875 0.46875,0.46875 h 1.0625 C -10.709062,6.5 -10.5,6.290938 -10.5,6.03125 V 5.5 h 3 v 3 H -8.03125 C -8.290937,8.5 -8.5,8.709062 -8.5,8.96875 v 1.0625 C -8.5,10.290938 -8.290937,10.5 -8.03125,10.5 H -7.5 v 2 H -8.03125 C -8.290937,12.5 -8.5,12.709062 -8.5,12.96875 v 1.0625 C -8.5,14.290937 -8.290937,14.5 -8.03125,14.5 H -7.5 v 2 H -8.03125 C -8.290937,16.5 -8.5,16.709063 -8.5,16.96875 v 1.0625 C -8.5,18.290937 -8.290937,18.5 -8.03125,18.5 H -7.5 v 2 H -8.03125 C -8.290937,20.5 -8.5,20.709063 -8.5,20.96875 v 1.0625 C -8.5,22.290937 -8.290937,22.5 -8.03125,22.5 H -7.5 v 2 H -8.03125 C -8.290937,24.5 -8.5,24.709063 -8.5,24.96875 v 1.0625 C -8.5,26.290937 -8.290937,26.5 -8.03125,26.5 H -7.5 v 2 H -8.03125 C -8.290937,28.5 -8.5,28.709063 -8.5,28.96875 v 1.0625 C -8.5,30.290937 -8.290937,30.5 -8.03125,30.5 H -7.5 v 2 H -8.03125 C -8.290937,32.5 -8.5,32.709063 -8.5,32.96875 v 1.0625 C -8.5,34.290937 -8.290937,34.5 -8.03125,34.5 H -7.5 v 2 H -8.03125 C -8.290937,36.5 -8.5,36.709063 -8.5,36.96875 v 1.0625 C -8.5,38.290937 -8.290937,38.5 -8.03125,38.5 H -7.5 v 4 h -4 V 41.96875 C -11.5,41.709063 -11.709062,41.5 -11.96875,41.5 h -1.0625 C -13.290938,41.5 -13.5,41.709063 -13.5,41.96875 V 42.5 h -2 V 41.96875 C -15.5,41.709063 -15.709062,41.5 -15.96875,41.5 h -1.0625 C -17.290937,41.5 -17.5,41.709063 -17.5,41.96875 V 42.5 h -2 V 41.96875 C -19.5,41.709063 -19.709063,41.5 -19.96875,41.5 h -1.0625 C -21.290937,41.5 -21.5,41.709063 -21.5,41.96875 V 42.5 h -2 V 41.96875 C -23.5,41.709063 -23.709063,41.5 -23.96875,41.5 h -1.0625 C -25.290937,41.5 -25.5,41.709063 -25.5,41.96875 V 42.5 h -2 V 41.96875 C -27.5,41.709063 -27.709063,41.5 -27.96875,41.5 h -1.0625 C -29.290937,41.5 -29.5,41.709063 -29.5,41.96875 V 42.5 h -2 V 41.96875 C -31.5,41.709063 -31.709063,41.5 -31.96875,41.5 h -1.0625 C -33.290937,41.5 -33.5,41.709063 -33.5,41.96875 V 42.5 h -2 V 41.96875 C -35.5,41.709063 -35.709063,41.5 -35.96875,41.5 h -1.0625 C -37.290937,41.5 -37.5,41.709063 -37.5,41.96875 V 42.5 h -2 V 41.96875 C -39.5,41.709063 -39.709063,41.5 -39.96875,41.5 h -1.0625 C -41.290937,41.5 -41.5,41.709063 -41.5,41.96875 V 42.5 Z"
             id="rect7400" />
          <rect
             style="display:inline;fill:url(#linearGradient8629);fill-opacity:1;stroke:#729fcf;stroke-width:0.863943;stroke-linecap:round;stroke-linejoin:miter;stroke-miterlimit:4;stroke-dasharray:none;stroke-dashoffset:0.7;stroke-opacity:1"
             id="rect7471"
             width="26.968603"
             height="26.997641"
             x="-39.467426"
             y="10.50235"
             rx="0.66331834"
             ry="0.66331834"
             inkscape:label="sky" />
          <path
             style="display:inline;fill:#ffffff;fill-opacity:1;stroke:none;stroke-width:0.864821;stroke-linecap:round;stroke-linejoin:miter;stroke-miterlimit:4;stroke-dasharray:none;stroke-dashoffset:0.7;stroke-opacity:1"
             d="m -17.148747,17.45824 c -3.435161,0 -6.223119,2.797867 -6.223119,6.245238 0,1.624828 0.606081,3.117228 1.620604,4.228546 H -13 v -8.84742 c -1.103212,-0.998417 -2.547355,-1.626364 -4.148747,-1.626364 z"
             id="path7473"
             inkscape:label="sun" />
          <rect
             style="display:inline;opacity:0.784483;fill:url(#linearGradient8631);fill-opacity:1;stroke:none;stroke-width:0.864821;stroke-linecap:round;stroke-linejoin:miter;stroke-miterlimit:4;stroke-dasharray:none;stroke-dashoffset:0.7;stroke-opacity:1"
             id="rect7475"
             width="25.967997"
             height="8.8678665"
             x="-38.967995"
             y="28.132133"
             inkscape:label="ground" />
          <rect
             style="display:inline;opacity:0.2;fill:none;fill-opacity:1;stroke:#ffffff;stroke-width:0.864821;stroke-linecap:round;stroke-linejoin:miter;stroke-miterlimit:4;stroke-dasharray:none;stroke-dashoffset:0.7;stroke-opacity:1"
             id="rect7477"
             width="24.967997"
             height="25.002342"
             x="-38.467995"
             y="11.5"
             inkscape:label="highlight-inner" />
          <path
             style="display:inline;fill:#555753;fill-opacity:1;fill-rule:evenodd;stroke:none;stroke-width:0.0864821;stroke-linecap:butt;stroke-linejoin:miter;stroke-miterlimit:4;stroke-dasharray:none;stroke-opacity:1"
             d="m -36.355865,15.511552 c 2.403365,0.678418 3.626271,0.567249 5.387782,1.291536 2.419318,0.99476 2.679502,2.026775 4.400664,2.8069 -0.03319,-0.11698 0.09523,-0.236541 0.587013,-0.162636 0.226235,0.034 0.255702,0.520437 0.255702,0.520437 1.767252,0.557988 3.367392,0.307656 4.373718,0.871938 2.11111,1.183781 2.872328,2.196669 5.058197,3.551771 -2.313009,-0.335005 -3.653598,-1.455195 -5.573318,-2.097883 -1.678797,-0.562035 -3.409587,-0.611591 -3.858597,-0.975946 l -0.713066,0.66681 0.324122,0.748128 c -1.236207,0.511914 -2.379624,0.325689 -3.11156,-0.487909 l 1.102011,-0.650546 0.236376,-1.123347 c -1.520355,-0.800386 -1.930003,-1.449102 -3.248495,-2.179347 -1.486174,-0.823119 -3.210095,-0.989621 -5.220549,-2.779906 z"
             id="path7479"
             sodipodi:nodetypes="cscscscsccccccsc"
             inkscape:label="bird" />
          <path
             style="font-style:normal;font-weight:bold;font-size:5.01825px;font-family:'Bitstream Vera Sans';display:inline;fill:#ffffff;fill-opacity:1;stroke:none;stroke-width:0.864821px;stroke-linecap:butt;stroke-linejoin:miter;stroke-opacity:1"
             d="m -20.862821,31.069716 h 2.22509 v 0.730793 h -1.511294 v 0.596514 c 0.0682,-0.02066 0.136402,-0.03615 0.204606,-0.04649 0.06975,-0.01205 0.141827,-0.01807 0.216231,-0.01807 0.42316,3e-6 0.752545,0.117928 0.988154,0.353776 0.235604,0.234132 0.353407,0.561224 0.35341,0.981279 -3e-6,0.416614 -0.128657,0.742845 -0.385961,0.978696 -0.25576,0.23585 -0.611495,0.353776 -1.067206,0.353776 -0.196858,0 -0.392163,-0.02152 -0.585918,-0.06456 -0.192206,-0.04132 -0.383636,-0.105018 -0.57429,-0.191091 v -0.782436 c 0.189104,0.120509 0.368134,0.21089 0.537089,0.271142 0.170505,0.06026 0.330935,0.09038 0.48129,0.09038 0.217004,10e-7 0.387509,-0.05853 0.511514,-0.175596 0.125552,-0.118786 0.188329,-0.278889 0.188331,-0.48031 -2e-6,-0.20314 -0.06278,-0.363244 -0.188331,-0.480309 -0.124005,-0.117064 -0.29451,-0.175596 -0.511514,-0.175598 -0.128655,2e-6 -0.265834,0.01894 -0.411537,0.05681 -0.145705,0.03616 -0.30226,0.09296 -0.469664,0.170433 v -2.169141 m 4.99657,1.923821 c -3e-6,-0.482029 -0.04108,-0.821172 -0.123229,-1.01743 -0.08061,-0.197974 -0.217008,-0.296962 -0.409211,-0.296965 -0.192207,3e-6 -0.329387,0.09899 -0.411537,0.296965 -0.08216,0.196258 -0.12323,0.535401 -0.123229,1.01743 -1e-6,0.487197 0.04108,0.830645 0.123229,1.030342 0.08215,0.1997 0.21933,0.299548 0.411537,0.299547 0.190653,10e-7 0.327057,-0.09984 0.409211,-0.299547 0.08216,-0.199697 0.123226,-0.543145 0.123229,-1.030342 m 0.89515,0.0078 c -2e-6,0.638693 -0.124006,1.131914 -0.37201,1.479664 -0.24801,0.346029 -0.59987,0.519044 -1.05558,0.519044 -0.457265,0 -0.8099,-0.173015 -1.057906,-0.519044 -0.248008,-0.34775 -0.372012,-0.840971 -0.372011,-1.479664 -1e-6,-0.640411 0.124003,-1.133632 0.372011,-1.479664 0.248006,-0.347747 0.600641,-0.521623 1.057906,-0.521626 0.45571,3e-6 0.80757,0.173879 1.05558,0.521626 0.248004,0.346032 0.372008,0.839253 0.37201,1.479664"
             id="text7481"
             sodipodi:nodetypes="ccccccscscsccccscscscccccscsssscccscscscc"
             inkscape:label="50" />
          <path
             sodipodi:type="inkscape:offset"
             inkscape:radius="-1.016466"
             inkscape:original="M -44.5 5.5 L -44.5 9.5 L -43.96875 9.5 C -43.709063 9.5 -43.5 9.709062 -43.5 9.96875 L -43.5 11.03125 C -43.5 11.290938 -43.709063 11.5 -43.96875 11.5 L -44.5 11.5 L -44.5 13.5 L -43.96875 13.5 C -43.709063 13.5 -43.5 13.709062 -43.5 13.96875 L -43.5 15.03125 C -43.5 15.290937 -43.709063 15.5 -43.96875 15.5 L -44.5 15.5 L -44.5 17.5 L -43.96875 17.5 C -43.709063 17.5 -43.5 17.709063 -43.5 17.96875 L -43.5 19.03125 C -43.5 19.290937 -43.709063 19.5 -43.96875 19.5 L -44.5 19.5 L -44.5 21.5 L -43.96875 21.5 C -43.709063 21.5 -43.5 21.709063 -43.5 21.96875 L -43.5 23.03125 C -43.5 23.290937 -43.709063 23.5 -43.96875 23.5 L -44.5 23.5 L -44.5 25.5 L -43.96875 25.5 C -43.709063 25.5 -43.5 25.709063 -43.5 25.96875 L -43.5 27.03125 C -43.5 27.290937 -43.709063 27.5 -43.96875 27.5 L -44.5 27.5 L -44.5 29.5 L -43.96875 29.5 C -43.709063 29.5 -43.5 29.709063 -43.5 29.96875 L -43.5 31.03125 C -43.5 31.290937 -43.709063 31.5 -43.96875 31.5 L -44.5 31.5 L -44.5 33.5 L -43.96875 33.5 C -43.709063 33.5 -43.5 33.709063 -43.5 33.96875 L -43.5 35.03125 C -43.5 35.290937 -43.709063 35.5 -43.96875 35.5 L -44.5 35.5 L -44.5 37.5 L -43.96875 37.5 C -43.709063 37.5 -43.5 37.709063 -43.5 37.96875 L -43.5 39.03125 C -43.5 39.290937 -43.709063 39.5 -43.96875 39.5 L -44.5 39.5 L -44.5 42.5 L -41.5 42.5 L -41.5 41.96875 C -41.5 41.709063 -41.290937 41.5 -41.03125 41.5 L -39.96875 41.5 C -39.709063 41.5 -39.5 41.709063 -39.5 41.96875 L -39.5 42.5 L -37.5 42.5 L -37.5 41.96875 C -37.5 41.709063 -37.290937 41.5 -37.03125 41.5 L -35.96875 41.5 C -35.709063 41.5 -35.5 41.709063 -35.5 41.96875 L -35.5 42.5 L -33.5 42.5 L -33.5 41.96875 C -33.5 41.709063 -33.290937 41.5 -33.03125 41.5 L -31.96875 41.5 C -31.709063 41.5 -31.5 41.709063 -31.5 41.96875 L -31.5 42.5 L -29.5 42.5 L -29.5 41.96875 C -29.5 41.709063 -29.290937 41.5 -29.03125 41.5 L -27.96875 41.5 C -27.709063 41.5 -27.5 41.709063 -27.5 41.96875 L -27.5 42.5 L -25.5 42.5 L -25.5 41.96875 C -25.5 41.709063 -25.290937 41.5 -25.03125 41.5 L -23.96875 41.5 C -23.709063 41.5 -23.5 41.709063 -23.5 41.96875 L -23.5 42.5 L -21.5 42.5 L -21.5 41.96875 C -21.5 41.709063 -21.290937 41.5 -21.03125 41.5 L -19.96875 41.5 C -19.709063 41.5 -19.5 41.709063 -19.5 41.96875 L -19.5 42.5 L -17.5 42.5 L -17.5 41.96875 C -17.5 41.709063 -17.290937 41.5 -17.03125 41.5 L -15.96875 41.5 C -15.709062 41.5 -15.5 41.709063 -15.5 41.96875 L -15.5 42.5 L -13.5 42.5 L -13.5 41.96875 C -13.5 41.709063 -13.290938 41.5 -13.03125 41.5 L -11.96875 41.5 C -11.709062 41.5 -11.5 41.709063 -11.5 41.96875 L -11.5 42.5 L -7.5 42.5 L -7.5 38.5 L -8.03125 38.5 C -8.290937 38.5 -8.5 38.290937 -8.5 38.03125 L -8.5 36.96875 C -8.5 36.709063 -8.290937 36.5 -8.03125 36.5 L -7.5 36.5 L -7.5 34.5 L -8.03125 34.5 C -8.290937 34.5 -8.5 34.290937 -8.5 34.03125 L -8.5 32.96875 C -8.5 32.709063 -8.290937 32.5 -8.03125 32.5 L -7.5 32.5 L -7.5 30.5 L -8.03125 30.5 C -8.290937 30.5 -8.5 30.290937 -8.5 30.03125 L -8.5 28.96875 C -8.5 28.709063 -8.290937 28.5 -8.03125 28.5 L -7.5 28.5 L -7.5 26.5 L -8.03125 26.5 C -8.290937 26.5 -8.5 26.290937 -8.5 26.03125 L -8.5 24.96875 C -8.5 24.709063 -8.290937 24.5 -8.03125 24.5 L -7.5 24.5 L -7.5 22.5 L -8.03125 22.5 C -8.290937 22.5 -8.5 22.290937 -8.5 22.03125 L -8.5 20.96875 C -8.5 20.709063 -8.290937 20.5 -8.03125 20.5 L -7.5 20.5 L -7.5 18.5 L -8.03125 18.5 C -8.290937 18.5 -8.5 18.290937 -8.5 18.03125 L -8.5 16.96875 C -8.5 16.709063 -8.290937 16.5 -8.03125 16.5 L -7.5 16.5 L -7.5 14.5 L -8.03125 14.5 C -8.290937 14.5 -8.5 14.290937 -8.5 14.03125 L -8.5 12.96875 C -8.5 12.709062 -8.290937 12.5 -8.03125 12.5 L -7.5 12.5 L -7.5 10.5 L -8.03125 10.5 C -8.290937 10.5 -8.5 10.290938 -8.5 10.03125 L -8.5 8.96875 C -8.5 8.709062 -8.290937 8.5 -8.03125 8.5 L -7.5 8.5 L -7.5 5.5 L -10.5 5.5 L -10.5 6.03125 C -10.5 6.290938 -10.709062 6.5 -10.96875 6.5 L -12.03125 6.5 C -12.290938 6.5 -12.5 6.290938 -12.5 6.03125 L -12.5 5.5 L -14.5 5.5 L -14.5 6.03125 C -14.5 6.290938 -14.709062 6.5 -14.96875 6.5 L -16.03125 6.5 C -16.290937 6.5 -16.5 6.290938 -16.5 6.03125 L -16.5 5.5 L -18.5 5.5 L -18.5 6.03125 C -18.5 6.290938 -18.709063 6.5 -18.96875 6.5 L -20.03125 6.5 C -20.290937 6.5 -20.5 6.290938 -20.5 6.03125 L -20.5 5.5 L -22.5 5.5 L -22.5 6.03125 C -22.5 6.290938 -22.709063 6.5 -22.96875 6.5 L -24.03125 6.5 C -24.290937 6.5 -24.5 6.290938 -24.5 6.03125 L -24.5 5.5 L -26.5 5.5 L -26.5 6.03125 C -26.5 6.290938 -26.709063 6.5 -26.96875 6.5 L -28.03125 6.5 C -28.290937 6.5 -28.5 6.290938 -28.5 6.03125 L -28.5 5.5 L -30.5 5.5 L -30.5 6.03125 C -30.5 6.290938 -30.709063 6.5 -30.96875 6.5 L -32.03125 6.5 C -32.290937 6.5 -32.5 6.290938 -32.5 6.03125 L -32.5 5.5 L -34.5 5.5 L -34.5 6.03125 C -34.5 6.290938 -34.709063 6.5 -34.96875 6.5 L -36.03125 6.5 C -36.290937 6.5 -36.5 6.290938 -36.5 6.03125 L -36.5 5.5 L -38.5 5.5 L -38.5 6.03125 C -38.5 6.290938 -38.709063 6.5 -38.96875 6.5 L -40.03125 6.5 C -40.290937 6.5 -40.5 6.290938 -40.5 6.03125 L -40.5 5.5 L -44.5 5.5 z "
             style="display:inline;opacity:1;fill:none;fill-opacity:1;stroke:#ffffff;stroke-width:0.864821;stroke-linecap:round;stroke-linejoin:miter;stroke-miterlimit:4;stroke-dasharray:none;stroke-dashoffset:0.7;stroke-opacity:1"
             id="path8496"
             d="M -43.484375,6.515625 V 8.6875 c 0.551213,0.2192014 1,0.6625736 1,1.28125 v 1.0625 c 0,0.618676 -0.448787,1.062049 -1,1.28125 v 0.375 c 0.551213,0.219201 1,0.662574 1,1.28125 v 1.0625 c 0,0.618677 -0.448787,1.062049 -1,1.28125 v 0.375 c 0.551213,0.219201 1,0.662573 1,1.28125 v 1.0625 c 0,0.618677 -0.448787,1.062049 -1,1.28125 v 0.375 c 0.551213,0.219201 1,0.662573 1,1.28125 v 1.0625 c 0,0.618677 -0.448787,1.062049 -1,1.28125 v 0.375 c 0.551213,0.219201 1,0.662573 1,1.28125 v 1.0625 c 0,0.618677 -0.448787,1.062049 -1,1.28125 v 0.375 c 0.551213,0.219201 1,0.662573 1,1.28125 v 1.0625 c 0,0.618677 -0.448787,1.062049 -1,1.28125 v 0.375 c 0.551213,0.219201 1,0.662573 1,1.28125 v 1.0625 c 0,0.618677 -0.448787,1.062049 -1,1.28125 v 0.375 c 0.551213,0.219201 1,0.662573 1,1.28125 v 1.0625 c 0,0.618677 -0.448787,1.062049 -1,1.28125 v 1.171875 h 1.171875 c 0.219201,-0.551213 0.662573,-1 1.28125,-1 h 1.0625 c 0.618677,0 1.062049,0.448787 1.28125,1 h 0.375 c 0.219201,-0.551213 0.662573,-1 1.28125,-1 h 1.0625 c 0.618677,0 1.062049,0.448787 1.28125,1 h 0.375 c 0.219201,-0.551213 0.662573,-1 1.28125,-1 h 1.0625 c 0.618677,0 1.062049,0.448787 1.28125,1 h 0.375 c 0.219201,-0.551213 0.662573,-1 1.28125,-1 h 1.0625 c 0.618677,0 1.062049,0.448787 1.28125,1 h 0.375 c 0.219201,-0.551213 0.662573,-1 1.28125,-1 h 1.0625 c 0.618677,0 1.062049,0.448787 1.28125,1 h 0.375 c 0.219201,-0.551213 0.662573,-1 1.28125,-1 h 1.0625 c 0.618677,0 1.062049,0.448787 1.28125,1 h 0.375 c 0.219201,-0.551213 0.662573,-1 1.28125,-1 h 1.0625 c 0.618676,0 1.062049,0.448787 1.28125,1 h 0.375 c 0.219201,-0.551213 0.662574,-1 1.28125,-1 h 1.0625 c 0.618676,0 1.062049,0.448787 1.28125,1 h 2.171875 V 39.3125 c -0.5512133,-0.219201 -1,-0.662573 -1,-1.28125 v -1.0625 c 0,-0.618677 0.4487867,-1.062049 1,-1.28125 v -0.375 c -0.5512133,-0.219201 -1,-0.662573 -1,-1.28125 v -1.0625 c 0,-0.618677 0.4487867,-1.062049 1,-1.28125 v -0.375 c -0.5512133,-0.219201 -1,-0.662573 -1,-1.28125 v -1.0625 c 0,-0.618677 0.4487867,-1.062049 1,-1.28125 v -0.375 c -0.5512133,-0.219201 -1,-0.662573 -1,-1.28125 v -1.0625 c 0,-0.618677 0.4487867,-1.062049 1,-1.28125 v -0.375 c -0.5512133,-0.219201 -1,-0.662573 -1,-1.28125 v -1.0625 c 0,-0.618677 0.4487867,-1.062049 1,-1.28125 v -0.375 c -0.5512133,-0.219201 -1,-0.662573 -1,-1.28125 v -1.0625 c 0,-0.618677 0.4487867,-1.062049 1,-1.28125 v -0.375 c -0.5512133,-0.219201 -1,-0.662573 -1,-1.28125 v -1.0625 c 0,-0.618676 0.4487872,-1.062049 1,-1.28125 v -0.375 c -0.5512128,-0.219201 -1,-0.662574 -1,-1.28125 v -1.0625 c 0,-0.6186764 0.4487872,-1.0620486 1,-1.28125 V 6.515625 H -9.6875 c -0.219202,0.5512126 -0.662576,1 -1.28125,1 h -1.0625 c -0.618674,0 -1.062048,-0.4487874 -1.28125,-1 h -0.375 c -0.219202,0.5512126 -0.662576,1 -1.28125,1 h -1.0625 c -0.618675,0 -1.062048,-0.4487869 -1.28125,-1 h -0.375 c -0.219202,0.5512131 -0.662575,1 -1.28125,1 h -1.0625 c -0.618675,0 -1.062048,-0.4487869 -1.28125,-1 h -0.375 c -0.219202,0.5512131 -0.662575,1 -1.28125,1 h -1.0625 c -0.618675,0 -1.062048,-0.4487869 -1.28125,-1 h -0.375 c -0.219202,0.5512131 -0.662575,1 -1.28125,1 h -1.0625 c -0.618675,0 -1.062048,-0.4487869 -1.28125,-1 h -0.375 c -0.219202,0.5512131 -0.662575,1 -1.28125,1 h -1.0625 c -0.618675,0 -1.062048,-0.4487869 -1.28125,-1 h -0.375 c -0.219202,0.5512131 -0.662575,1 -1.28125,1 h -1.0625 c -0.618675,0 -1.062048,-0.4487869 -1.28125,-1 h -0.375 c -0.219202,0.5512131 -0.662575,1 -1.28125,1 h -1.0625 c -0.618675,0 -1.062048,-0.4487869 -1.28125,-1 z"
             inkscape:label="highlight" />
          <path
             sodipodi:type="inkscape:offset"
             inkscape:radius="-0.5"
             inkscape:original="M -44.5 5.5 L -44.5 9.5 L -43.96875 9.5 C -43.709063 9.5 -43.5 9.709062 -43.5 9.96875 L -43.5 11.03125 C -43.5 11.290938 -43.709063 11.5 -43.96875 11.5 L -44.5 11.5 L -44.5 13.5 L -43.96875 13.5 C -43.709063 13.5 -43.5 13.709062 -43.5 13.96875 L -43.5 15.03125 C -43.5 15.290937 -43.709063 15.5 -43.96875 15.5 L -44.5 15.5 L -44.5 17.5 L -43.96875 17.5 C -43.709063 17.5 -43.5 17.709063 -43.5 17.96875 L -43.5 19.03125 C -43.5 19.290937 -43.709063 19.5 -43.96875 19.5 L -44.5 19.5 L -44.5 21.5 L -43.96875 21.5 C -43.709063 21.5 -43.5 21.709063 -43.5 21.96875 L -43.5 23.03125 C -43.5 23.290937 -43.709063 23.5 -43.96875 23.5 L -44.5 23.5 L -44.5 25.5 L -43.96875 25.5 C -43.709063 25.5 -43.5 25.709063 -43.5 25.96875 L -43.5 27.03125 C -43.5 27.290937 -43.709063 27.5 -43.96875 27.5 L -44.5 27.5 L -44.5 29.5 L -43.96875 29.5 C -43.709063 29.5 -43.5 29.709063 -43.5 29.96875 L -43.5 31.03125 C -43.5 31.290937 -43.709063 31.5 -43.96875 31.5 L -44.5 31.5 L -44.5 33.5 L -43.96875 33.5 C -43.709063 33.5 -43.5 33.709063 -43.5 33.96875 L -43.5 35.03125 C -43.5 35.290937 -43.709063 35.5 -43.96875 35.5 L -44.5 35.5 L -44.5 37.5 L -43.96875 37.5 C -43.709063 37.5 -43.5 37.709063 -43.5 37.96875 L -43.5 39.03125 C -43.5 39.290937 -43.709063 39.5 -43.96875 39.5 L -44.5 39.5 L -44.5 42.5 L -41.5 42.5 L -41.5 41.96875 C -41.5 41.709063 -41.290937 41.5 -41.03125 41.5 L -39.96875 41.5 C -39.709063 41.5 -39.5 41.709063 -39.5 41.96875 L -39.5 42.5 L -37.5 42.5 L -37.5 41.96875 C -37.5 41.709063 -37.290937 41.5 -37.03125 41.5 L -35.96875 41.5 C -35.709063 41.5 -35.5 41.709063 -35.5 41.96875 L -35.5 42.5 L -33.5 42.5 L -33.5 41.96875 C -33.5 41.709063 -33.290937 41.5 -33.03125 41.5 L -31.96875 41.5 C -31.709063 41.5 -31.5 41.709063 -31.5 41.96875 L -31.5 42.5 L -29.5 42.5 L -29.5 41.96875 C -29.5 41.709063 -29.290937 41.5 -29.03125 41.5 L -27.96875 41.5 C -27.709063 41.5 -27.5 41.709063 -27.5 41.96875 L -27.5 42.5 L -25.5 42.5 L -25.5 41.96875 C -25.5 41.709063 -25.290937 41.5 -25.03125 41.5 L -23.96875 41.5 C -23.709063 41.5 -23.5 41.709063 -23.5 41.96875 L -23.5 42.5 L -21.5 42.5 L -21.5 41.96875 C -21.5 41.709063 -21.290937 41.5 -21.03125 41.5 L -19.96875 41.5 C -19.709063 41.5 -19.5 41.709063 -19.5 41.96875 L -19.5 42.5 L -17.5 42.5 L -17.5 41.96875 C -17.5 41.709063 -17.290937 41.5 -17.03125 41.5 L -15.96875 41.5 C -15.709062 41.5 -15.5 41.709063 -15.5 41.96875 L -15.5 42.5 L -13.5 42.5 L -13.5 41.96875 C -13.5 41.709063 -13.290938 41.5 -13.03125 41.5 L -11.96875 41.5 C -11.709062 41.5 -11.5 41.709063 -11.5 41.96875 L -11.5 42.5 L -7.5 42.5 L -7.5 38.5 L -8.03125 38.5 C -8.290937 38.5 -8.5 38.290937 -8.5 38.03125 L -8.5 36.96875 C -8.5 36.709063 -8.290937 36.5 -8.03125 36.5 L -7.5 36.5 L -7.5 34.5 L -8.03125 34.5 C -8.290937 34.5 -8.5 34.290937 -8.5 34.03125 L -8.5 32.96875 C -8.5 32.709063 -8.290937 32.5 -8.03125 32.5 L -7.5 32.5 L -7.5 30.5 L -8.03125 30.5 C -8.290937 30.5 -8.5 30.290937 -8.5 30.03125 L -8.5 28.96875 C -8.5 28.709063 -8.290937 28.5 -8.03125 28.5 L -7.5 28.5 L -7.5 26.5 L -8.03125 26.5 C -8.290937 26.5 -8.5 26.290937 -8.5 26.03125 L -8.5 24.96875 C -8.5 24.709063 -8.290937 24.5 -8.03125 24.5 L -7.5 24.5 L -7.5 22.5 L -8.03125 22.5 C -8.290937 22.5 -8.5 22.290937 -8.5 22.03125 L -8.5 20.96875 C -8.5 20.709063 -8.290937 20.5 -8.03125 20.5 L -7.5 20.5 L -7.5 18.5 L -8.03125 18.5 C -8.290937 18.5 -8.5 18.290937 -8.5 18.03125 L -8.5 16.96875 C -8.5 16.709063 -8.290937 16.5 -8.03125 16.5 L -7.5 16.5 L -7.5 14.5 L -8.03125 14.5 C -8.290937 14.5 -8.5 14.290937 -8.5 14.03125 L -8.5 12.96875 C -8.5 12.709062 -8.290937 12.5 -8.03125 12.5 L -7.5 12.5 L -7.5 10.5 L -8.03125 10.5 C -8.290937 10.5 -8.5 10.290938 -8.5 10.03125 L -8.5 8.96875 C -8.5 8.709062 -8.290937 8.5 -8.03125 8.5 L -7.5 8.5 L -7.5 5.5 L -10.5 5.5 L -10.5 6.03125 C -10.5 6.290938 -10.709062 6.5 -10.96875 6.5 L -12.03125 6.5 C -12.290938 6.5 -12.5 6.290938 -12.5 6.03125 L -12.5 5.5 L -14.5 5.5 L -14.5 6.03125 C -14.5 6.290938 -14.709062 6.5 -14.96875 6.5 L -16.03125 6.5 C -16.290937 6.5 -16.5 6.290938 -16.5 6.03125 L -16.5 5.5 L -18.5 5.5 L -18.5 6.03125 C -18.5 6.290938 -18.709063 6.5 -18.96875 6.5 L -20.03125 6.5 C -20.290937 6.5 -20.5 6.290938 -20.5 6.03125 L -20.5 5.5 L -22.5 5.5 L -22.5 6.03125 C -22.5 6.290938 -22.709063 6.5 -22.96875 6.5 L -24.03125 6.5 C -24.290937 6.5 -24.5 6.290938 -24.5 6.03125 L -24.5 5.5 L -26.5 5.5 L -26.5 6.03125 C -26.5 6.290938 -26.709063 6.5 -26.96875 6.5 L -28.03125 6.5 C -28.290937 6.5 -28.5 6.290938 -28.5 6.03125 L -28.5 5.5 L -30.5 5.5 L -30.5 6.03125 C -30.5 6.290938 -30.709063 6.5 -30.96875 6.5 L -32.03125 6.5 C -32.290937 6.5 -32.5 6.290938 -32.5 6.03125 L -32.5 5.5 L -34.5 5.5 L -34.5 6.03125 C -34.5 6.290938 -34.709063 6.5 -34.96875 6.5 L -36.03125 6.5 C -36.290937 6.5 -36.5 6.290938 -36.5 6.03125 L -36.5 5.5 L -38.5 5.5 L -38.5 6.03125 C -38.5 6.290938 -38.709063 6.5 -38.96875 6.5 L -40.03125 6.5 C -40.290937 6.5 -40.5 6.290938 -40.5 6.03125 L -40.5 5.5 L -44.5 5.5 z "
             style="display:inline;opacity:0.3;fill:url(#radialGradient8633);fill-opacity:1;stroke:none;stroke-width:0.864821;stroke-linecap:round;stroke-linejoin:miter;stroke-miterlimit:4;stroke-dasharray:none;stroke-dashoffset:0.7;stroke-opacity:1"
             id="path8503"
             d="m -44,6 v 3 h 0.03125 C -43.440712,9 -43,9.4407105 -43,9.96875 v 1.0625 C -43,11.55929 -43.440712,12 -43.96875,12 H -44 v 1 h 0.03125 C -43.440712,13 -43,13.44071 -43,13.96875 v 1.0625 C -43,15.55929 -43.44071,16 -43.96875,16 H -44 v 1 h 0.03125 C -43.44071,17 -43,17.44071 -43,17.96875 v 1.0625 C -43,19.55929 -43.44071,20 -43.96875,20 H -44 v 1 h 0.03125 C -43.44071,21 -43,21.44071 -43,21.96875 v 1.0625 C -43,23.55929 -43.44071,24 -43.96875,24 H -44 v 1 h 0.03125 C -43.44071,25 -43,25.44071 -43,25.96875 v 1.0625 C -43,27.55929 -43.44071,28 -43.96875,28 H -44 v 1 h 0.03125 C -43.44071,29 -43,29.44071 -43,29.96875 v 1.0625 C -43,31.55929 -43.44071,32 -43.96875,32 H -44 v 1 h 0.03125 C -43.44071,33 -43,33.44071 -43,33.96875 v 1.0625 C -43,35.55929 -43.44071,36 -43.96875,36 H -44 v 1 h 0.03125 C -43.44071,37 -43,37.44071 -43,37.96875 v 1.0625 C -43,39.55929 -43.44071,40 -43.96875,40 H -44 v 2 h 2 V 41.96875 C -42,41.44071 -41.55929,41 -41.03125,41 h 1.0625 C -39.44071,41 -39,41.44071 -39,41.96875 V 42 h 1 V 41.96875 C -38,41.44071 -37.55929,41 -37.03125,41 h 1.0625 C -35.44071,41 -35,41.44071 -35,41.96875 V 42 h 1 V 41.96875 C -34,41.44071 -33.55929,41 -33.03125,41 h 1.0625 C -31.44071,41 -31,41.44071 -31,41.96875 V 42 h 1 V 41.96875 C -30,41.44071 -29.55929,41 -29.03125,41 h 1.0625 C -27.44071,41 -27,41.44071 -27,41.96875 V 42 h 1 V 41.96875 C -26,41.44071 -25.55929,41 -25.03125,41 h 1.0625 C -23.44071,41 -23,41.44071 -23,41.96875 V 42 h 1 V 41.96875 C -22,41.44071 -21.55929,41 -21.03125,41 h 1.0625 C -19.44071,41 -19,41.44071 -19,41.96875 V 42 h 1 V 41.96875 C -18,41.44071 -17.55929,41 -17.03125,41 h 1.0625 C -15.44071,41 -15,41.440712 -15,41.96875 V 42 h 1 V 41.96875 C -14,41.440712 -13.55929,41 -13.03125,41 h 1.0625 C -11.44071,41 -11,41.440712 -11,41.96875 V 42 h 3 V 39 H -8.03125 C -8.5592895,39 -9,38.55929 -9,38.03125 v -1.0625 C -9,36.44071 -8.5592895,36 -8.03125,36 H -8 V 35 H -8.03125 C -8.5592895,35 -9,34.55929 -9,34.03125 v -1.0625 C -9,32.44071 -8.5592895,32 -8.03125,32 H -8 V 31 H -8.03125 C -8.5592895,31 -9,30.55929 -9,30.03125 v -1.0625 C -9,28.44071 -8.5592895,28 -8.03125,28 H -8 V 27 H -8.03125 C -8.5592895,27 -9,26.55929 -9,26.03125 v -1.0625 C -9,24.44071 -8.5592895,24 -8.03125,24 H -8 V 23 H -8.03125 C -8.5592895,23 -9,22.55929 -9,22.03125 v -1.0625 C -9,20.44071 -8.5592895,20 -8.03125,20 H -8 V 19 H -8.03125 C -8.5592895,19 -9,18.55929 -9,18.03125 v -1.0625 C -9,16.44071 -8.5592895,16 -8.03125,16 H -8 V 15 H -8.03125 C -8.5592895,15 -9,14.55929 -9,14.03125 v -1.0625 C -9,12.44071 -8.5592883,12 -8.03125,12 H -8 V 11 H -8.03125 C -8.5592883,11 -9,10.55929 -9,10.03125 V 8.96875 C -9,8.4407105 -8.5592883,8 -8.03125,8 H -8 V 6 h -2 V 6.03125 C -10,6.5592882 -10.440712,7 -10.96875,7 h -1.0625 C -12.559288,7 -13,6.5592882 -13,6.03125 V 6 h -1 V 6.03125 C -14,6.5592882 -14.440712,7 -14.96875,7 h -1.0625 C -16.559288,7 -17,6.5592895 -17,6.03125 V 6 h -1 V 6.03125 C -18,6.5592895 -18.440712,7 -18.96875,7 h -1.0625 C -20.559288,7 -21,6.5592895 -21,6.03125 V 6 h -1 V 6.03125 C -22,6.5592895 -22.440712,7 -22.96875,7 h -1.0625 C -24.559288,7 -25,6.5592895 -25,6.03125 V 6 h -1 V 6.03125 C -26,6.5592895 -26.440712,7 -26.96875,7 h -1.0625 C -28.559288,7 -29,6.5592895 -29,6.03125 V 6 h -1 V 6.03125 C -30,6.5592895 -30.440712,7 -30.96875,7 h -1.0625 C -32.559288,7 -33,6.5592895 -33,6.03125 V 6 h -1 V 6.03125 C -34,6.5592895 -34.440712,7 -34.96875,7 h -1.0625 C -36.559288,7 -37,6.5592895 -37,6.03125 V 6 h -1 V 6.03125 C -38,6.5592895 -38.440712,7 -38.96875,7 h -1.0625 C -40.559288,7 -41,6.5592895 -41,6.03125 V 6 Z"
             inkscape:label="gradiant" />
        </g>
      </g>
      <g
         id="g9431"
         transform="translate(0.24460772,0.40725063)"
         style="stroke-width:0.864821">
        <path
           style="fill:none;stroke:#888a85;stroke-width:0.979237;stroke-linecap:butt;stroke-linejoin:miter;stroke-miterlimit:4;stroke-dasharray:none;stroke-opacity:1"
           d="m 9.8086228,19.58245 c 17.0530622,0 17.0530622,0 17.0530622,0"
           id="path2830" />
        <path
           style="fill:none;stroke:#888a85;stroke-width:0.979237;stroke-linecap:butt;stroke-linejoin:miter;stroke-miterlimit:4;stroke-dasharray:none;stroke-opacity:1"
           d="m 9.8086228,22.607586 c 16.9777002,0 16.9777002,0 16.9777002,0"
           id="path2830-1" />
        <path
           style="fill:none;stroke:#888a85;stroke-width:0.979237;stroke-linecap:butt;stroke-linejoin:miter;stroke-miterlimit:4;stroke-dasharray:none;stroke-opacity:1"
           d="m 9.8086228,25.552286 c 7.8444082,0 7.8444082,0 7.8444082,0"
           id="path2830-19" />
        <path
           style="fill:none;stroke:#888a85;stroke-width:0.979237;stroke-linecap:butt;stroke-linejoin:miter;stroke-miterlimit:4;stroke-dasharray:none;stroke-opacity:1"
           d="m 9.8086228,16.597532 c 16.9885852,0 16.9885852,0 16.9885852,0"
           id="path2830-19-7" />
        <path
           style="fill:none;stroke:#888a85;stroke-width:0.979237;stroke-linecap:butt;stroke-linejoin:miter;stroke-miterlimit:4;stroke-dasharray:none;stroke-opacity:1"
           d="m 9.8086228,13.612614 c 16.9885852,0 16.9885852,0 16.9885852,0"
           id="path2830-19-7-4" />
      </g>
    </g>
  </g>
</svg>
