<?xml version="1.0" encoding="UTF-8" standalone="no"?>
<!-- Created with Inkscape (http://www.inkscape.org/) -->

<svg
   width="48"
   height="48"
   viewBox="0 0 12.7 12.7"
   version="1.1"
   id="svg4296"
   inkscape:version="1.1.1 (3bf5ae0d25, 2021-09-20)"
   sodipodi:docname="gramps-avatars-woman.svg"
   inkscape:export-filename="C:\Users\bjpco\Documents\FAMILY TREE DATA\Barrie Phelan - Family Tree 2020\sources\gramps-avatars-woman.png"
   inkscape:export-xdpi="150"
   inkscape:export-ydpi="150"
   xmlns:inkscape="http://www.inkscape.org/namespaces/inkscape"
   xmlns:sodipodi="http://sodipodi.sourceforge.net/DTD/sodipodi-0.dtd"
   xmlns="http://www.w3.org/2000/svg"
   xmlns:svg="http://www.w3.org/2000/svg">
  <sodipodi:namedview
     id="namedview4298"
     pagecolor="#ededed"
     bordercolor="#666666"
     borderopacity="1.0"
     inkscape:pageshadow="2"
     inkscape:pageopacity="0"
     inkscape:pagecheckerboard="0"
     inkscape:document-units="px"
     showgrid="true"
     units="px"
     inkscape:showpageshadow="false"
     showguides="true"
     inkscape:guide-bbox="true"
     inkscape:zoom="8.3202187"
     inkscape:cx="28.725206"
     inkscape:cy="41.164783"
     inkscape:window-width="1920"
     inkscape:window-height="1001"
     inkscape:window-x="-9"
     inkscape:window-y="-9"
     inkscape:window-maximized="1"
     inkscape:current-layer="layer1"
     inkscape:snap-global="false">
    <inkscape:grid
       type="xygrid"
       id="grid4462"
       spacingx="0.26458333"
       spacingy="0.26458333"
       empspacing="10"
       originx="0"
       originy="0" />
    <sodipodi:guide
       position="0.26458333,0.26458349"
       orientation="1,0"
       id="guide4464" />
    <sodipodi:guide
       position="0.26458333,12.435417"
       orientation="0,-1"
       id="guide4466" />
    <sodipodi:guide
       position="12.435417,0.26458349"
       orientation="0,-1"
       id="guide4468" />
    <sodipodi:guide
       position="12.435417,12.435417"
       orientation="1,0"
       id="guide4470" />
    <sodipodi:guide
       position="6.3499999,0.26458349"
       orientation="1,0"
       id="guide9974" />
    <sodipodi:guide
       position="12.435417,6.3500001"
       orientation="0,-1"
       id="guide9976" />
  </sodipodi:namedview>
  <defs
     id="defs4293" />
  <g
     inkscape:label="Layer 1"
     inkscape:groupmode="layer"
     id="layer1">
    <path
       style="fill:#000000;fill-opacity:1;stroke:none;stroke-width:0.0264583;stroke-linecap:butt;stroke-linejoin:miter;stroke-miterlimit:4;stroke-dasharray:none;stroke-opacity:1"
       d="m 7.4647672,7.0324468 c 0,0 0.1429745,0.073882 0.212318,0.083458 0.080108,0.011062 0.1958372,0.5752662 0.1542299,0.6307399 -0.041599,0.055473 -0.079029,0.1178117 -0.073093,0.2195229 0.00589,0.1017112 0.4747339,1.6462485 0.4747339,1.6462485 0,0 0.4179713,1.0472739 -0.3244049,0.8933409 -0.7568055,-0.156925 -1.8466275,-0.164858 -2.3523375,0.28166 -0.505709,0.446519 -0.839116,1.64803 -1.869582,1.64803 0.0825,-0.185037 0.168162,-0.681039 0.17232,-1.127207 0.0054,-0.576098 -0.06791,-1.124651 0.162483,-1.739577 0.230393,-0.6149271 0.601962,-1.2121955 1.224391,-1.7394988 0.285353,-0.2417426 0.376441,-0.3738554 0.435846,-0.5012218 0.05941,-0.1273665 0.07547,-0.849768 -0.158341,-0.8161042 -0.417481,0.060108 -0.759396,-0.067513 -0.818688,-0.2043573 -0.05929,-0.1368443 -0.0051,-0.271748 -0.04112,-0.3876678 -0.03605,-0.1159199 -0.148093,-0.2166667 -0.133935,-0.2772972 0.01416,-0.06063 0.07443,-0.1179801 0.07443,-0.1179801 0,0 -0.107553,-0.089505 -0.103607,-0.1391135 0.0039,-0.049605 0.06132,-0.095836 0.0696,-0.1499061 0.0082,-0.054069 -0.01612,-0.1923631 -0.01612,-0.1923631 0,0 -0.248394,-0.1073481 -0.255909,-0.1982919 -0.0076,-0.09094 0.408365,-0.453891 0.471782,-0.6634187 0.06342,-0.2095267 -0.03485,-0.2199638 0.02884,-0.6023538 0.06368,-0.38239 0.311023,-1.0333161 0.94368,-1.3085032 0.632656,-0.2751861 1.292704,-0.3205462 1.813892,-0.3205462 0.5211878,0 0.8610307,0.8647109 0.9621712,0.9500191 0.1011406,0.085308 0.4402103,0.1192305 0.4862974,0.2037205 0.046083,0.084494 -0.106577,0.5332556 -0.082375,0.7418905 C 8.9464732,4.0543043 8.7451949,4.562041 8.7367259,4.7442338 8.7282859,4.9264265 8.6953329,5.0288602 8.6053374,5.077872 8.5378364,5.114635 8.430145,5.043425 8.3445492,4.988109 8.1725542,4.8769532 7.8944571,5.2302472 7.7235855,5.5765112 7.5527139,5.9227753 7.4647566,6.3681968 7.4647566,7.0324483 Z"
       id="path24118"
       sodipodi:nodetypes="csczcszcszszszzzczzczzzzzzzzzsszc" />
  </g>
</svg>
