<?xml version="1.0" encoding="UTF-8" standalone="no"?>
<!-- Created with Inkscape (http://www.inkscape.org/) -->

<svg
   width="48"
   height="48"
   viewBox="0 0 12.7 12.7"
   version="1.1"
   id="svg4296"
   inkscape:version="1.1.1 (3bf5ae0d25, 2021-09-20)"
   sodipodi:docname="gramps-avatars-all.svg"
   xmlns:inkscape="http://www.inkscape.org/namespaces/inkscape"
   xmlns:sodipodi="http://sodipodi.sourceforge.net/DTD/sodipodi-0.dtd"
   xmlns="http://www.w3.org/2000/svg"
   xmlns:svg="http://www.w3.org/2000/svg">
  <sodipodi:namedview
     id="namedview4298"
     pagecolor="#ededed"
     bordercolor="#666666"
     borderopacity="1.0"
     inkscape:pageshadow="2"
     inkscape:pageopacity="1"
     inkscape:pagecheckerboard="0"
     inkscape:document-units="px"
     showgrid="true"
     units="px"
     inkscape:showpageshadow="false"
     showguides="true"
     inkscape:guide-bbox="true"
     inkscape:zoom="6.1489957"
     inkscape:cx="53.992557"
     inkscape:cy="45.942462"
     inkscape:window-width="1920"
     inkscape:window-height="1001"
     inkscape:window-x="-9"
     inkscape:window-y="-9"
     inkscape:window-maximized="1"
     inkscape:current-layer="layer1"
     inkscape:snap-global="false">
    <inkscape:grid
       type="xygrid"
       id="grid4462"
       spacingx="0.26458333"
       spacingy="0.26458333"
       empspacing="10"
       originx="0"
       originy="0" />
    <sodipodi:guide
       position="0.26458333,0.26458349"
       orientation="1,0"
       id="guide4464" />
    <sodipodi:guide
       position="0.26458333,12.435417"
       orientation="0,-1"
       id="guide4466" />
    <sodipodi:guide
       position="12.435417,0.26458349"
       orientation="0,-1"
       id="guide4468" />
    <sodipodi:guide
       position="12.435417,12.435417"
       orientation="1,0"
       id="guide4470" />
    <sodipodi:guide
       position="6.3499999,0.26458349"
       orientation="1,0"
       id="guide9974" />
    <sodipodi:guide
       position="12.435417,6.3500001"
       orientation="0,-1"
       id="guide9976" />
  </sodipodi:namedview>
  <defs
     id="defs4293" />
  <g
     inkscape:label="Layer 1"
     inkscape:groupmode="layer"
     id="layer1">
    <path
       style="fill:#000000;fill-opacity:1;stroke:none;stroke-width:0.0264583;stroke-linecap:butt;stroke-linejoin:miter;stroke-miterlimit:4;stroke-dasharray:none;stroke-opacity:1"
       d="m -9.802528,7.0324468 c 0,0 0.1429745,0.073882 0.212318,0.083458 0.080108,0.011062 0.1958372,0.5752662 0.1542299,0.6307399 -0.041599,0.055473 -0.079029,0.1178117 -0.073093,0.2195229 0.00589,0.1017112 0.4747339,1.6462485 0.4747339,1.6462485 0,0 0.4179713,1.0472739 -0.3244049,0.8933409 -0.7568059,-0.156925 -1.8466279,-0.164858 -2.3523379,0.28166 -0.505709,0.446519 -0.839116,1.64803 -1.869582,1.64803 0.0825,-0.185037 0.168162,-0.681039 0.17232,-1.127207 0.0054,-0.576098 -0.06791,-1.124651 0.162483,-1.739577 0.230393,-0.6149271 0.601962,-1.2121955 1.224391,-1.7394988 0.285353,-0.2417426 0.376441,-0.3738554 0.435846,-0.5012218 0.05941,-0.1273665 0.07547,-0.849768 -0.158341,-0.8161042 -0.417481,0.060108 -0.759396,-0.067513 -0.818688,-0.2043573 -0.05929,-0.1368443 -0.0051,-0.271748 -0.04112,-0.3876678 -0.03605,-0.1159199 -0.148093,-0.2166667 -0.133935,-0.2772972 0.01416,-0.06063 0.07443,-0.1179801 0.07443,-0.1179801 0,0 -0.107553,-0.089505 -0.103607,-0.1391135 0.0039,-0.049605 0.06132,-0.095836 0.0696,-0.1499061 0.0082,-0.054069 -0.01612,-0.1923631 -0.01612,-0.1923631 0,0 -0.248394,-0.1073481 -0.255909,-0.1982919 -0.0076,-0.09094 0.408365,-0.453891 0.471782,-0.6634187 0.06342,-0.2095267 -0.03485,-0.2199638 0.02884,-0.6023538 0.06368,-0.38239 0.311023,-1.0333161 0.94368,-1.3085032 0.632656,-0.2751861 1.292704,-0.3205462 1.8138924,-0.3205462 0.5211878,0 0.8610307,0.8647109 0.9621712,0.9500191 0.1011406,0.085308 0.4402103,0.1192305 0.4862974,0.2037205 0.046083,0.084494 -0.106577,0.5332556 -0.082375,0.7418905 0.024204,0.2086349 -0.1770743,0.7163716 -0.1855433,0.8985644 -0.00844,0.1821927 -0.041393,0.2846264 -0.1313885,0.3336382 C -8.7294588,5.114635 -8.8371502,5.043425 -8.922746,4.988109 -9.094741,4.8769532 -9.3728381,5.2302472 -9.5437097,5.5765112 -9.7145813,5.9227753 -9.8025386,6.3681968 -9.8025386,7.0324483 Z"
       id="path24118"
       sodipodi:nodetypes="csczcszcszszszzzczzczzzzzzzzzsszc" />
    <path
       id="path17383"
       style="fill:#000000;fill-opacity:1;stroke:none;stroke-width:0.0264583;stroke-linecap:butt;stroke-linejoin:miter;stroke-miterlimit:4;stroke-dasharray:none;stroke-opacity:1"
       d="M -2.174899,0.89826352 C -2.3577118,0.89785782 -2.5605689,1.0567581 -2.5605689,1.0567581 l -0.8500588,0.6757144 c 0,0 -0.2384359,0.1023949 -0.5964675,0.051246 -0.3580316,-0.051147 -0.8694743,0.1534087 -1.0740642,0.2557042 -0.2045889,0.1023026 -0.4106459,-0.073403 -0.5372958,-0.00845 -0.05031,0.0258 0.014793,0.2749677 -0.071319,0.3581976 -0.1988188,0.1921622 -0.3449803,0.623404 -0.3465751,0.7581317 -0.00164,0.1347265 -0.068365,0.2548231 -0.082943,0.3677071 -0.014579,0.1128831 0.1732231,0.2709034 0.076605,0.4400862 -0.096622,0.1691838 -0.4414678,0.4703727 -0.4094437,0.5536739 0.03202,0.083296 0.1403587,0.1033775 0.2387979,0.1294373 0.098442,0.02606 0.00317,0.3650565 0.041211,0.3714053 0.038042,0.00634 0.1040784,0.054417 0.1040784,0.054417 0,0 -0.091664,0.045137 -0.09879,0.1061913 -0.00716,0.061054 0.059286,0.101545 0.081359,0.1801551 0.022083,0.078611 -0.013945,0.1317522 -0.039095,0.2810637 -0.02515,0.1493114 0.4516688,0.3177254 0.7021306,0.3291401 0,0 -0.011921,0.2161584 0.075552,0.2387981 0.087462,0.022635 0.1292498,-0.2217814 0.2144955,0.016906 0.085244,0.2386875 0.076523,0.7533278 -0.033809,1.0233457 -0.1103321,0.2700182 -0.5210384,0.4774397 -0.4913329,0.5351831 0.02971,0.057743 0.2522489,0.010091 0.2863474,0.1294371 0.034095,0.1193439 -0.6479798,0.7161317 -1.0571586,1.1253106 -0.4091789,0.4091787 0.051496,1.1935414 0.2731386,1.6879654 0.2216387,0.494424 -0.079774,1.610789 -0.020079,1.676872 0.059705,0.06609 0.5522856,0.08264 1.5606422,-0.187552 1.0083566,-0.270189 1.3585795,-1.138067 2.0905414,-1.387355 C -1.8056828,10.574814 -1.451667,10.093991 -1.38347,9.6677638 -1.31527,9.2415309 -1.7738795,8.8589403 -1.9984289,8.4288606 -2.2229792,7.9987808 -2.7185222,7.0494304 -2.7185222,7.0494304 c 0,0 0.062445,-0.091753 0.080827,-0.168004 0.018382,-0.076251 -0.273706,-0.6069618 -0.3312532,-0.6054489 -0.057548,0.00151 -0.1347203,-0.02536 -0.1347203,-0.02536 0,0 -0.1701173,-0.3860811 -0.1701173,-0.4945026 0,-0.1084216 0.010602,-0.3383152 0.204457,-0.4775966 0.1185264,-0.061488 0.1989445,-0.2458644 0.3523862,-0.3481594 0.1534407,-0.1022944 0.2435528,-0.2736672 0.2435528,-0.2736672 0,0 0.1494126,0.125174 0.2055152,0.093511 0.056107,-0.031665 -0.024148,-0.1025661 0.032756,-0.2002313 0.056904,-0.097662 0.2129507,-0.2064626 0.4004623,-0.339178 C -1.3012525,3.8332655 -1.5095004,3.0536179 -1.475402,2.6955873 -1.4413065,2.3375558 -1.7296363,2.0073721 -1.716313,1.8545101 -1.6993624,1.6600641 -1.8355417,1.2461057 -1.9588097,1.027169 -2.0126979,0.93146062 -2.0917941,0.89844812 -2.1748908,0.89826042 Z M -3.0561283,6.3673786 c 0.077648,0.017387 0.3333807,0.3589097 0.3011398,0.52673 -0.032245,0.16782 -2.4291524,0.8249472 -2.3451897,0.7195647 0.083966,-0.1053825 0.4797671,-0.3242234 1.2748234,-0.56741 0.7950573,-0.2431868 0.735857,-0.6863575 0.7692265,-0.6788847 z" />
    <path
       style="fill:#000000;fill-opacity:1;stroke:none;stroke-width:0.0264583;stroke-linecap:butt;stroke-linejoin:miter;stroke-miterlimit:4;stroke-dasharray:none;stroke-opacity:1"
       d="m 24.3987,2.4006534 c 0,0 0.533352,-0.27827 1.089893,-0.200973 0.55654,0.0773 0.633836,-0.0773 0.819351,0.0077 0.185513,0.08503 0.486971,0.432865 0.50243,0.587459 0.01545,0.154595 -0.0773,0.239622 0.06184,0.479243 0.139134,0.239621 0.284185,0.657882 0.206887,0.943882 -0.0773,0.286 0.07221,0.260314 0.133222,0.439738 0.06102,0.179424 0.30693,0.595838 0.225591,0.6806 -0.08134,0.08476 -0.28423,0.02373 -0.295351,0.143427 -0.01112,0.119698 0.03968,0.217078 0.01256,0.25485 -0.02712,0.03777 -0.149036,0.04155 -0.149036,0.04155 0,0 0.08378,0.101784 0.08566,0.150533 0.0019,0.04875 -0.07784,0.08494 -0.154185,0.169811 -0.07635,0.08488 0.08483,0.317685 -0.0079,0.45682 -0.09276,0.139135 -0.170133,0.13819 -0.372345,0.135327 -0.202212,-0.0029 -0.31215,0.327608 -0.31215,0.327608 0,0 0.107317,0.07573 0.173872,0.111752 0.06656,0.03603 0.200315,0.491148 0.239813,0.719056 0.590505,0.609785 1.379915,1.8673399 1.72648,2.9311256 0.346566,1.063785 0.286889,1.342201 0.217729,1.655378 -2.114549,0 -1.644977,-2.130683 -4.904371,-2.186373 -0.825313,0 -0.845155,-0.5632754 -0.850889,-0.8010861 -0.0057,-0.2378108 0.03862,-0.8826925 0.458318,-1.3220375 0.4197,-0.439345 0.141841,-0.623797 0.141841,-0.623797 l 0.425136,-1.329512 0.237424,-0.06228 c 0,0 -0.327416,-0.314722 -0.288768,-0.399749 0.03865,-0.08503 0.113179,-0.195 0.03588,-0.380513 -0.0773,-0.185513 -1.004866,-2.009728 0.541078,-2.929565 z"
       id="path5051"
       sodipodi:nodetypes="csccsszzzzczzszczczcczzcccsscc" />
    <path
       id="path971"
       style="fill:#000000;fill-opacity:1;stroke:none;stroke-width:0.0529167;stroke-linecap:butt;stroke-linejoin:miter;stroke-miterlimit:4;stroke-dasharray:none;stroke-opacity:1"
       d="m 17.686391,0.94167131 c -0.155807,-0.0019 -0.311854,0.0059 -0.474906,0.0186 -0.326105,0.02535 -0.607754,0.05189 -1.087789,0.52813199 -0.193877,0.161568 -0.323495,0.35506 -0.323495,0.635104 0,0.280045 -0.150378,0.829407 -0.150378,0.829407 0,0 -0.11843,1.282184 0.07545,1.637626 0.193878,0.355436 0.710551,0.290421 0.710551,0.290421 l 0.04341,0.1726 c 0,0 -0.251638,0.08077 -0.269751,0.107487 -0.01811,0.02672 0.07504,0.563517 0,0.721919 -0.07504,0.158403 -0.559079,0.834772 -0.839742,1.615405 -0.280659,0.780634 -0.506226,1.57288 -0.204639,1.896009 0.301587,0.323129 0.559965,-0.140227 2.110982,-0.301791 1.551018,-0.161564 1.949288,1.3678587 2.574003,2.3264737 0.465467,0.68482 1.315166,1.016476 1.315166,1.016476 -1e-6,0 -0.122638,-1.361171 -0.310059,-2.7683077 -0.187421,-1.407135 -0.961276,-2.557278 -1.123446,-2.782259 -0.17747,-0.246209 -0.362348,-0.400983 -0.484724,-0.496093 -0.122378,-0.09511 -0.173087,-0.07867 -0.178571,-0.123926 -0.0055,-0.04526 0.07523,-0.05675 0.09227,-0.09156 0.01704,-0.03481 -0.101143,-0.442177 -0.12144,-0.466122 -0.0203,-0.02395 -0.362769,-0.190686 -0.362769,-0.190686 l 0.301274,-0.182934 c 0,0 0.478496,-0.0082 0.571024,-0.129191 0.140023,-0.183107 0.05374,-0.377204 0.05374,-0.441834 0,-0.06462 0.118339,-0.129157 0.118339,-0.193786 0,-0.06462 -0.09663,-0.140043 -0.09663,-0.140043 l 0.01085,-0.04289 0.118339,-0.07545 c 0,0 -0.05394,-0.236972 -0.01085,-0.344681 0.04308,-0.10771 0.161687,0.02125 0.290939,-0.108004 0.129251,-0.129251 -0.269255,-0.548986 -0.409278,-0.710551 -0.140023,-0.161564 -0.0863,-0.409542 -0.0863,-0.581877 0,-0.172336 -0.215511,-0.506095 -0.355533,-0.667659 -0.140023,-0.161565 -0.132422,-0.318568 -0.204639,-0.452686 -0.0754,-0.140022 -0.495426,-0.40917 -0.818555,-0.46302099 -0.161564,-0.02692 -0.317032,-0.03849 -0.472839,-0.04031 z M 17.322589,5.0949053 c 0,0 1.618584,0.07685 1.629176,0.127643 0.01059,0.05079 -0.415813,0.24081 -0.415813,0.24081 z"
       sodipodi:nodetypes="cccscscczssssccssszzzcccsscccsssssscccczcc" />
    <path
       id="path9984"
       style="fill:#000000;fill-opacity:1;stroke:none;stroke-width:0.0264583;stroke-linecap:butt;stroke-linejoin:miter;stroke-miterlimit:4;stroke-dasharray:none;stroke-opacity:1"
       d="m 31.902378,3.0664092 c -0.260385,1e-6 -0.532379,0.019209 -0.712282,0.033414 -0.359804,0.028401 -0.558796,0.3120618 -0.729229,0.4919642 -0.170434,0.1799023 -0.22732,0.6251909 -0.322004,0.8619045 -0.09468,0.2367136 -0.0758,0.5973176 0.01888,0.7582828 0.09468,0.1609653 0.217078,0.5722121 0.282782,0.8275264 0.0657,0.2553133 0.456132,0.3525802 0.456132,0.7055035 l -0.09684,-0.00918 c -0.05789,0 -0.01792,0.2445293 -0.01792,0.2445293 0,0 -0.03489,0.025084 -0.04216,0.042306 -0.0073,0.017222 0.04313,0.2051287 0.04313,0.2051287 0,0 -0.03006,0.023791 -0.03852,0.051798 -0.0084,0.028007 0.02642,0.1049776 -0.02782,0.4406551 -0.05424,0.3356802 -0.173122,0.4176747 -0.472111,1.5335134 -0.250374,0.9344089 0.255844,1.2674029 0.971338,1.2487939 2.210697,-0.0575 2.413609,1.932991 3.363851,1.932991 0,0 -0.08022,-0.854874 -0.116697,-1.256056 C 34.24095,8.73818 33.907646,8.1279382 33.08725,7.5560925 c -0.04091,-0.028523 -0.09103,-0.061009 -0.09103,-0.061009 0,0 -0.05837,-0.1661554 -0.02615,-0.2290338 0.03222,-0.062883 0.261281,-0.080968 0.331688,-0.1675394 0.07041,-0.08658 0.01437,-0.1758385 0.04697,-0.2682554 0.0326,-0.092418 0.128788,-0.1489265 0.137034,-0.2348452 0.0082,-0.085924 -0.04213,-0.064045 -0.04213,-0.1346126 0,-0.04835 0.107123,-0.019452 0.132675,-0.065854 0.02551,-0.046401 -0.08638,-0.3268854 0.0063,-0.3462142 0.104908,-0.021879 0.208214,-0.094591 0.208214,-0.2082133 0,-0.1136225 -0.222268,-0.3553819 -0.187392,-0.644976 0.03043,-0.2526897 0.0012,-0.831936 -0.07602,-1.0173386 -0.07917,-0.1898769 -0.0082,-0.226413 -0.0082,-0.4725951 0,-0.2461822 -0.710092,-0.4356936 -0.975211,-0.5587856 -0.13256,-0.061543 -0.381202,-0.080377 -0.641587,-0.080377 z M 31.35634,6.8108833 c 0.157681,0.049306 0.869725,0.2737014 1.517695,0.3885964 l 0.0314,0.297346 -0.241624,-0.050355 c 0,0 -1.090172,-0.3846825 -1.229428,-0.4680066 C 31.295126,6.8951451 31.150314,6.821424 31.148641,6.795449 31.147341,6.774685 31.271833,6.784467 31.35634,6.810891 Z"
       sodipodi:nodetypes="ccssssccczczsssccccccssscssccssccsccczsss" />
    <path
       id="path24118-6"
       style="fill:#000000;fill-opacity:1;stroke:none;stroke-width:0.0264583;stroke-linecap:butt;stroke-linejoin:miter;stroke-miterlimit:4;stroke-dasharray:none;stroke-opacity:1"
       d="m 6.5323327,3.0069107 c -0.2357,-3.314e-4 -0.480624,0.016185 -0.765918,0.082759 -0.570587,0.1331516 -0.981825,0.803453 -1.042715,1.1521559 -0.06088,0.3487029 0.03301,0.3581937 -0.02764,0.5492619 -0.06063,0.1910692 -0.394624,0.5065837 -0.392654,0.6241615 0.0014,0.0832 0.191479,0.1419388 0.191479,0.1419388 0,0 0.05927,0.1259215 0.05139,0.1752278 -0.0079,0.049307 -0.03454,0.1017894 -0.03829,0.1470244 -0.0038,0.045235 0.139611,0.070738 0.139611,0.070738 0,0 -0.05772,0.052434 -0.07126,0.1077256 -0.01354,0.05529 0.161297,0.1256443 0.127977,0.2529008 -0.03332,0.1272567 -0.01742,0.228441 0.03927,0.3532293 0.05669,0.1247916 0.349566,0.1626506 0.769313,0.140552 0.22551,-0.011872 0.242462,0.5630337 0.185662,0.6791799 -0.02648,0.054191 -0.17561,8.049e-4 -0.234624,0.060567 -0.06753,0.068387 -0.154081,0.2347154 -0.285037,0.3768083 -0.514938,0.5587279 -0.744684,1.0513955 -0.848327,1.6579579 -0.103664,0.6065622 0.0075,1.3032152 0.0024,1.8285612 -0.004,0.406865 -0.08593,0.859051 -0.164817,1.027787 0.985245,0 1.119092,-1.389941 1.602611,-1.797124 0.483518,-0.407182 1.470421,-0.340982 2.194016,-0.197882 0.709799,0.140372 0.433858,-0.8539448 0.433858,-0.8539448 0,0 -0.427745,-1.4283534 -0.433374,-1.5211044 -0.0058,-0.092751 -0.127999,-0.5222561 -0.08822,-0.5728415 C 7.9168237,7.4419633 7.7239317,7.1955669 7.6404807,7.106957 7.5957507,7.059465 7.4858427,6.9983068 7.4858427,6.9983068 7.3643007,6.7922813 7.2875187,6.5128004 7.3147227,6.1286419 c 0.02721,-0.3841585 0.291971,-0.5334361 0.566199,-0.6218497 0.09231,-0.029757 0.397436,-0.06773 0.461974,-0.101253 0.08605,-0.044694 0.117486,-0.1380794 0.125554,-0.3042208 0.0081,-0.1661422 0.0566,-0.3673292 0.03345,-0.5575843 -0.02314,-0.1902549 0.06103,-0.5535837 0.01697,-0.6306341 -0.04406,-0.077047 -0.368181,-0.1080684 -0.464883,-0.1858613 -0.0967,-0.077793 -0.311715,-0.7027596 -0.810032,-0.7027596 -0.249158,0 -0.475924,-0.017226 -0.711625,-0.017569 z m 0.955458,4.0704571 c 0,0 0.181457,0.090157 0.235593,0.2811038 0.02708,0.095519 -0.506087,0.1114244 -0.506087,0.1114244 l -1.327753,0.028665 c 0.733942,-0.2592901 1.402367,-0.018892 1.598247,-0.4211932 z" />
  </g>
</svg>
