<?xml version="1.0" encoding="UTF-8" standalone="no"?>
<!-- Created with Inkscape (http://www.inkscape.org/) -->

<svg
   width="48"
   height="48"
   viewBox="0 0 12.7 12.7"
   version="1.1"
   id="svg4296"
   inkscape:version="1.1.1 (3bf5ae0d25, 2021-09-20)"
   sodipodi:docname="gramps-avatars-gramp.svg"
   xmlns:inkscape="http://www.inkscape.org/namespaces/inkscape"
   xmlns:sodipodi="http://sodipodi.sourceforge.net/DTD/sodipodi-0.dtd"
   xmlns="http://www.w3.org/2000/svg"
   xmlns:svg="http://www.w3.org/2000/svg">
  <sodipodi:namedview
     id="namedview4298"
     pagecolor="#ededed"
     bordercolor="#666666"
     borderopacity="1.0"
     inkscape:pageshadow="2"
     inkscape:pageopacity="1"
     inkscape:pagecheckerboard="0"
     inkscape:document-units="px"
     showgrid="true"
     units="px"
     inkscape:showpageshadow="false"
     showguides="true"
     inkscape:guide-bbox="true"
     inkscape:zoom="4.5060426"
     inkscape:cx="39.94636"
     inkscape:cy="29.848808"
     inkscape:window-width="1920"
     inkscape:window-height="1001"
     inkscape:window-x="-9"
     inkscape:window-y="-9"
     inkscape:window-maximized="1"
     inkscape:current-layer="layer1"
     inkscape:snap-global="false">
    <inkscape:grid
       type="xygrid"
       id="grid4462"
       spacingx="0.26458333"
       spacingy="0.26458333"
       empspacing="10"
       originx="0"
       originy="0" />
    <sodipodi:guide
       position="0.26458333,0.26458349"
       orientation="1,0"
       id="guide4464" />
    <sodipodi:guide
       position="0.26458333,12.435417"
       orientation="0,-1"
       id="guide4466" />
    <sodipodi:guide
       position="12.435417,0.26458349"
       orientation="0,-1"
       id="guide4468" />
    <sodipodi:guide
       position="12.435417,12.435417"
       orientation="1,0"
       id="guide4470" />
    <sodipodi:guide
       position="6.3499999,0.26458349"
       orientation="1,0"
       id="guide9974" />
    <sodipodi:guide
       position="12.435417,6.3500001"
       orientation="0,-1"
       id="guide9976" />
  </sodipodi:namedview>
  <defs
     id="defs4293" />
  <g
     inkscape:label="Layer 1"
     inkscape:groupmode="layer"
     id="layer1">
    <path
       id="path971"
       style="opacity:1;fill:#000000;fill-opacity:1;stroke:none;stroke-width:0.0529167;stroke-linecap:butt;stroke-linejoin:miter;stroke-miterlimit:4;stroke-dasharray:none;stroke-opacity:1"
       d="m 5.9429009,0.94167131 c -0.1558068,-0.0019 -0.3118541,0.0059 -0.4749065,0.0186 -0.3261047,0.02535 -0.6077537,0.05189 -1.0877888,0.52813199 -0.1938769,0.161568 -0.3234944,0.35506 -0.3234944,0.635104 0,0.280045 -0.1503786,0.829407 -0.1503786,0.829407 0,0 -0.1184293,1.282184 0.075448,1.637626 0.1938779,0.355436 0.710551,0.290421 0.710551,0.290421 l 0.043408,0.1726 c 0,0 -0.2516376,0.08077 -0.2697509,0.107487 -0.018113,0.02672 0.075036,0.563517 0,0.721919 -0.075036,0.158403 -0.5590791,0.834772 -0.8397419,1.615405 -0.2806592,0.780634 -0.5062257,1.57288 -0.2046388,1.896009 0.3015871,0.323129 0.5599652,-0.140227 2.1109823,-0.301791 1.5510173,-0.161564 1.9492875,1.3678587 2.5740029,2.3264737 0.4654669,0.68482 1.3151654,1.016476 1.3151654,1.016476 -3e-7,0 -0.1226376,-1.361171 -0.3100589,-2.7683077 C 8.9242787,8.2600973 8.1504235,7.1099543 7.9882543,6.8849733 7.8107834,6.6387643 7.6259061,6.4839903 7.5035294,6.3888803 7.3811522,6.2937703 7.3304428,6.3102103 7.3249586,6.2649543 c -0.00548,-0.04526 0.075234,-0.05675 0.092271,-0.09156 0.017037,-0.03481 -0.1011429,-0.442177 -0.12144,-0.466122 -0.020297,-0.02395 -0.3627684,-0.190686 -0.3627684,-0.190686 l 0.3012734,-0.182934 c 0,0 0.4784958,-0.0082 0.5710245,-0.129191 0.1400231,-0.183107 0.053744,-0.377204 0.053744,-0.441834 0,-0.06462 0.1183388,-0.129157 0.1183388,-0.193786 0,-0.06462 -0.096635,-0.140043 -0.096635,-0.140043 l 0.010853,-0.04289 0.1183392,-0.07545 c 0,0 -0.053936,-0.236972 -0.010853,-0.344681 0.043084,-0.10771 0.1616872,0.02125 0.2909385,-0.108004 0.1292516,-0.129251 -0.2692551,-0.548986 -0.4092773,-0.710551 -0.1400231,-0.161564 -0.0863,-0.409542 -0.0863,-0.581877 0,-0.172336 -0.2155116,-0.506095 -0.3555338,-0.667659 C 7.2989112,1.7361213 7.3065119,1.5791183 7.2342947,1.4450003 7.1588987,1.3049783 6.7388687,1.0358303 6.41574,0.98197931 c -0.1615641,-0.02692 -0.3170325,-0.03849 -0.4728393,-0.04031 z M 5.5790988,5.0949053 c 0,0 1.6185844,0.07685 1.6291759,0.127643 0.010592,0.05079 -0.4158132,0.24081 -0.4158132,0.24081 z"
       sodipodi:nodetypes="cccscscczssssccssszzzcccsscccsssssscccczcc" />
  </g>
</svg>
