<?xml version="1.0" encoding="UTF-8" standalone="no"?>
<!-- Created with Sodipodi ("http://www.sodipodi.com/") -->

<svg
   width="48pt"
   height="48pt"
   viewBox="0 0 117 117"
   style="overflow:visible;enable-background:new 0 0 117 117"
   xml:space="preserve"
   id="svg548"
   sodipodi:version="0.32"
   sodipodi:docname="gramps-help-browser.svg"
   version="1.1"
   inkscape:version="1.1.1 (3bf5ae0d25, 2021-09-20)"
   inkscape:export-filename="C:\Users\bjpco\Downloads\gramps-master\NEW ICONS\Scalable Icons PNG\All SVG\requested\graps-help-browser.png"
   inkscape:export-xdpi="96"
   inkscape:export-ydpi="96"
   xmlns:inkscape="http://www.inkscape.org/namespaces/inkscape"
   xmlns:sodipodi="http://sodipodi.sourceforge.net/DTD/sodipodi-0.dtd"
   xmlns="http://www.w3.org/2000/svg"
   xmlns:svg="http://www.w3.org/2000/svg"
   xmlns:a="http://ns.adobe.com/AdobeSVGViewerExtensions/3.0/">
  <defs
   id="defs579" />
  <sodipodi:namedview
   id="base"
   pagecolor="#ededed"
   bordercolor="#666666"
   borderopacity="1.0"
   inkscape:pageshadow="2"
   inkscape:pageopacity="1"
   inkscape:pagecheckerboard="0"
   inkscape:document-units="pt"
   showgrid="true"
   showguides="true"
   inkscape:zoom="11.234375"
   inkscape:cx="31.376912"
   inkscape:cy="32"
   inkscape:window-width="1920"
   inkscape:window-height="1001"
   inkscape:window-x="-9"
   inkscape:window-y="-9"
   inkscape:window-maximized="1"
   inkscape:current-layer="svg548"><inkscape:grid
     type="xygrid"
     id="grid6528"
     empspacing="4" /></sodipodi:namedview>
  <g
   id="Layer_1"
   style="stroke:#000000;stroke-width:1.04348"
   inkscape:label="gramps-help-browser"
   transform="matrix(0.95833333,0,0,0.95833333,2.4375002,2.4375002)">
    <path
   style="opacity:0.2;stroke:none;stroke-width:1.04348"
   d="m 3,60 c 0,31.43 25.57,57 57,57 31.43,0 57,-25.57 57,-57 C 117,28.57 91.43,3 60,3 28.57,3 3,28.57 3,60 Z m 36,0 C 39,48.42 48.42,39 60,39 71.579,39 81,48.42 81,60 81,71.579 71.579,81 60,81 48.42,81 39,71.579 39,60 Z"
   id="path550" />
    <path
   style="fill:#663333;stroke:none;stroke-width:1.04348"
   d="m 0,58 c 0,31.981 26.019,58 58,58 31.981,0 58,-26.019 58,-58 C 116,26.019 89.981,0 58,0 26.019,0 0,26.019 0,58 Z m 38,0 C 38,46.972 46.972,38 58,38 69.028,38 78,46.972 78,58 78,69.028 69.028,78 58,78 46.972,78 38,69.028 38,58 Z"
   id="path551" />
    <radialGradient
   id="XMLID_1_"
   cx="58"
   cy="58"
   r="57"
   fx="58"
   fy="58"
   gradientUnits="userSpaceOnUse">
      <stop
   offset="0"
   style="stop-color:#B00000"
   id="stop553" />
      <stop
   offset="1"
   style="stop-color:#993300"
   id="stop554" />
      <a:midPointStop
   offset="0"
   style="stop-color:#B00000"
   id="midPointStop555" />
      <a:midPointStop
   offset="0.5"
   style="stop-color:#B00000"
   id="midPointStop556" />
      <a:midPointStop
   offset="1"
   style="stop-color:#993300"
   id="midPointStop557" />
    </radialGradient>
    <path
   style="fill:url(#XMLID_1_);stroke:none;stroke-width:1.04348"
   d="m 1,58 c 0,31.43 25.57,57 57,57 31.43,0 57,-25.57 57,-57 C 115,26.57 89.43,1 58,1 26.57,1 1,26.57 1,58 Z m 36,0 C 37,46.42 46.42,37 58,37 69.579,37 79,46.42 79,58 79,69.579 69.579,79 58,79 46.42,79 37,69.579 37,58 Z"
   id="path558" />
    <radialGradient
   id="XMLID_2_"
   cx="58"
   cy="58"
   r="54"
   fx="58"
   fy="58"
   gradientUnits="userSpaceOnUse">
      <stop
   offset="0"
   style="stop-color:#FFFFFF"
   id="stop560" />
      <stop
   offset="0.1847"
   style="stop-color:#FF9393"
   id="stop561" />
      <stop
   offset="0.427"
   style="stop-color:#FF0000"
   id="stop562" />
      <stop
   offset="1"
   style="stop-color:#CF0000"
   id="stop563" />
      <a:midPointStop
   offset="0"
   style="stop-color:#FFFFFF"
   id="midPointStop564" />
      <a:midPointStop
   offset="0.5088"
   style="stop-color:#FFFFFF"
   id="midPointStop565" />
      <a:midPointStop
   offset="0.427"
   style="stop-color:#FF0000"
   id="midPointStop566" />
      <a:midPointStop
   offset="0.5"
   style="stop-color:#FF0000"
   id="midPointStop567" />
      <a:midPointStop
   offset="1"
   style="stop-color:#CF0000"
   id="midPointStop568" />
    </radialGradient>
    <path
   style="fill:url(#XMLID_2_);stroke:none;stroke-width:1.04348"
   d="M 58,4 C 28.177,4 4,28.177 4,58 4,87.823 28.177,112 58,112 87.823,112 112,87.823 112,58 112,28.177 87.823,4 58,4 Z m 0,78 C 44.767,82 34,71.233 34,58 34,44.767 44.767,34 58,34 71.233,34 82,44.767 82,58 82,71.233 71.233,82 58,82 Z"
   id="path569" />
    <path
   style="opacity:0.5;fill:#ffffff;stroke:none;stroke-width:1.04348"
   d="m 58,15 c 26.393,0 48.06,20.558 49.864,46.5 C 107.944,60.342 108,59.178 108,58 108,30.43 85.57,8 58,8 30.43,8 8,30.43 8,58 8,59.178 8.056,60.342 8.136,61.5 9.94,35.558 31.607,15 58,15 Z"
   id="path570" />
    <path
   style="opacity:0.4;fill:#ffffff;stroke:none;stroke-width:1.04348"
   d="M 58,93 C 73.439,93 86,80.439 86,65 86,63.814 85.917,62.647 85.773,61.5 84.045,75.292 72.254,86 58,86 43.747,86 31.955,75.292 30.227,61.5 30.083,62.647 30,63.814 30,65 30,80.439 42.561,93 58,93 Z"
   id="path571" />
    <path
   style="fill:#ffffff;stroke:none;stroke-width:1.04348"
   d="m 58,112 c 9.838,0 19.053,-2.644 26.997,-7.24 L 69.994,78.774 C 66.463,80.821 62.367,82 58,82 53.633,82 49.538,80.821 46.006,78.774 L 31.003,104.76 C 38.947,109.356 48.162,112 58,112 Z"
   id="path572" />
    <path
   style="fill:#ffffff;stroke:none;stroke-width:1.04348"
   d="M 58,4 C 48.162,4 38.947,6.644 31.003,11.24 L 46.005,37.225 C 49.538,35.179 53.633,34 58,34 c 4.367,0 8.463,1.179 11.994,3.226 L 84.997,11.24 C 77.053,6.644 67.838,4 58,4 Z"
   id="path573" />
    <path
   style="fill:#ffffff;stroke:none;stroke-width:1.04348"
   d="m 82,58 c 0,4.367 -1.179,8.463 -3.226,11.994 l 25.985,15.003 C 109.356,77.053 112,67.838 112,58 112,48.162 109.356,38.947 104.76,31.003 L 78.774,46.006 C 80.821,49.538 82,53.633 82,58 Z"
   id="path574" />
    <path
   style="fill:#ffffff;stroke:none;stroke-width:1.04348"
   d="m 34,58 c 0,-4.367 1.179,-8.462 3.226,-11.994 L 11.24,31.003 C 6.644,38.947 4,48.162 4,58 4,67.838 6.644,77.053 11.24,84.997 L 37.225,69.994 C 35.179,66.463 34,62.367 34,58 Z"
   id="path575" />
    <path
   style="opacity:0.3;fill:#616161;stroke:none;stroke-width:1.04348"
   d="m 58,28 c -13.233,0 -24,10.767 -24,24 0,1.017 0.071,2.016 0.194,3 C 35.676,43.178 45.783,34 58,34 70.217,34 80.324,43.178 81.806,55 81.929,54.016 82,53.017 82,52 82,38.767 71.233,28 58,28 Z m 0,78 C 29.184,106 5.645,83.427 4.087,55 4.033,55.994 4,56.993 4,58 c 0,29.823 24.177,54 54,54 29.823,0 54,-24.177 54,-54 0,-1.007 -0.032,-2.006 -0.087,-3 C 110.355,83.427 86.816,106 58,106 Z"
   id="path576" />
    <path
   style="opacity:0.3;fill:#616161;stroke:none;stroke-width:1.04348"
   d="M 58,112 C 87.106,112 110.823,88.968 111.946,60.136 111.932,59.758 111.933,59.377 111.913,59 110.355,87.427 86.816,110 58,110 29.184,110 5.645,87.427 4.087,59 4.066,59.377 4.068,59.758 4.054,60.136 5.177,88.968 28.893,112 58,112 Z M 34,56 c 0,0.289 0.018,0.574 0.029,0.86 C 34.626,44.154 45.149,34 58,34 70.851,34 81.373,44.153 81.971,56.859 81.982,56.573 82,56.289 82,56 82,42.767 71.233,32 58,32 44.767,32 34,42.767 34,56 Z"
   id="path577" />
  </g>
</svg>
