<?xml version="1.0" encoding="UTF-8" standalone="no"?>
<!-- Created with Inkscape (http://www.inkscape.org/) -->

<svg
   sodipodi:docname="gramps-event.svg"
   inkscape:version="1.1.1 (3bf5ae0d25, 2021-09-20)"
   sodipodi:version="0.32"
   id="svg1288"
   height="48px"
   width="48px"
   inkscape:output_extension="org.inkscape.output.svg.inkscape"
   sodipodi:modified="true"
   version="1.1"
   xmlns:inkscape="http://www.inkscape.org/namespaces/inkscape"
   xmlns:sodipodi="http://sodipodi.sourceforge.net/DTD/sodipodi-0.dtd"
   xmlns:xlink="http://www.w3.org/1999/xlink"
   xmlns="http://www.w3.org/2000/svg"
   xmlns:svg="http://www.w3.org/2000/svg"
   xmlns:rdf="http://www.w3.org/1999/02/22-rdf-syntax-ns#"
   xmlns:cc="http://creativecommons.org/ns#"
   xmlns:dc="http://purl.org/dc/elements/1.1/">
  <defs
     id="defs3">
    <linearGradient
       id="linearGradient2563">
      <stop
         id="stop2565"
         offset="0"
         style="stop-color:#e2e2e2;stop-opacity:1;" />
      <stop
         id="stop2567"
         offset="1.0000000"
         style="stop-color:#9f9f9f;stop-opacity:1.0000000;" />
    </linearGradient>
    <linearGradient
       id="linearGradient2551"
       inkscape:collect="always">
      <stop
         id="stop2553"
         offset="0"
         style="stop-color:#000000;stop-opacity:1;" />
      <stop
         id="stop2555"
         offset="1"
         style="stop-color:#000000;stop-opacity:0;" />
    </linearGradient>
    <linearGradient
       id="linearGradient2526">
      <stop
         id="stop2528"
         offset="0.0000000"
         style="stop-color:#e7ebeb;stop-opacity:1.0000000;" />
      <stop
         style="stop-color:#e6ebeb;stop-opacity:1.0000000;"
         offset="0.50000000"
         id="stop2534" />
      <stop
         id="stop2530"
         offset="1.0000000"
         style="stop-color:#ffffff;stop-opacity:1.0000000;" />
    </linearGradient>
    <linearGradient
       gradientTransform="translate(0.000000,0.785718)"
       gradientUnits="userSpaceOnUse"
       y2="28.428572"
       x2="42.214283"
       y1="14.428571"
       x1="13.357142"
       id="linearGradient2532"
       xlink:href="#linearGradient2526"
       inkscape:collect="always" />
    <radialGradient
       gradientUnits="userSpaceOnUse"
       gradientTransform="matrix(1.2480619,0,0,0.43066048,-8.3886205,28.071629)"
       r="18.428572"
       fy="29.000000"
       fx="26.000000"
       cy="29.000000"
       cx="26.000000"
       id="radialGradient2557"
       xlink:href="#linearGradient2551"
       inkscape:collect="always" />
    <linearGradient
       gradientTransform="matrix(1.1363499,0,0,1.1363499,-4.4587946,-2.3838468)"
       gradientUnits="userSpaceOnUse"
       y2="30.785713"
       x2="42.214284"
       y1="30.785713"
       x1="6.7857148"
       id="linearGradient2569"
       xlink:href="#linearGradient2563"
       inkscape:collect="always" />
    <linearGradient
       y2="28.428572"
       x2="42.214283"
       y1="14.428571"
       x1="13.357142"
       gradientTransform="translate(0,0.785718)"
       gradientUnits="userSpaceOnUse"
       id="linearGradient2582"
       xlink:href="#linearGradient2526"
       inkscape:collect="always" />
    <linearGradient
       gradientUnits="userSpaceOnUse"
       y2="5.6635628"
       x2="13.321142"
       y1="1.5628736"
       x1="12.910728"
       id="linearGradient2839"
       xlink:href="#linearGradient2833"
       inkscape:collect="always" />
    <linearGradient
       gradientTransform="matrix(0.7229796,0,0.0677948,0.8114825,58.235106,24.134876)"
       gradientUnits="userSpaceOnUse"
       y2="4.361907"
       x2="17.948223"
       y1="17.797228"
       x1="17.948223"
       id="linearGradient5351"
       xlink:href="#linearGradient5345"
       inkscape:collect="always" />
    <radialGradient
       gradientUnits="userSpaceOnUse"
       r="8.341651"
       fy="9.3411446"
       fx="38.658855"
       cy="9.3411446"
       cx="38.658855"
       id="radialGradient3271"
       xlink:href="#linearGradient2378"
       inkscape:collect="always" />
    <linearGradient
       id="linearGradient259">
      <stop
         style="stop-color:#fafafa;stop-opacity:1.0000000;"
         offset="0.0000000"
         id="stop260" />
      <stop
         style="stop-color:#bbbbbb;stop-opacity:1.0000000;"
         offset="1.0000000"
         id="stop261" />
    </linearGradient>
    <linearGradient
       id="linearGradient269">
      <stop
         style="stop-color:#a3a3a3;stop-opacity:1.0000000;"
         offset="0.0000000"
         id="stop270" />
      <stop
         style="stop-color:#8a8a8a;stop-opacity:1;"
         offset="1"
         id="stop271" />
    </linearGradient>
    <linearGradient
       id="linearGradient15662">
      <stop
         style="stop-color:#ffffff;stop-opacity:1.0000000;"
         offset="0.0000000"
         id="stop15664" />
      <stop
         style="stop-color:#f8f8f8;stop-opacity:1.0000000;"
         offset="1.0000000"
         id="stop15666" />
    </linearGradient>
    <linearGradient
       id="linearGradient2378">
      <stop
         id="stop2380"
         offset="0"
         style="stop-color:#ffffff;stop-opacity:1;" />
      <stop
         style="stop-color:#fefede;stop-opacity:0.91836733;"
         offset="0.25"
         id="stop4146" />
      <stop
         style="stop-color:#f5f328;stop-opacity:1;"
         offset="0.5"
         id="stop2386" />
      <stop
         id="stop2382"
         offset="1"
         style="stop-color:#f5f32d;stop-opacity:0.12234043;" />
    </linearGradient>
    <linearGradient
       id="linearGradient5345">
      <stop
         id="stop5347"
         offset="0"
         style="stop-color:#ef2929;stop-opacity:1;" />
      <stop
         style="stop-color:#cc0000;stop-opacity:1;"
         offset="0.42469135"
         id="stop1936" />
      <stop
         style="stop-color:#cc0000;stop-opacity:1;"
         offset="0.9041152"
         id="stop7129" />
      <stop
         id="stop5349"
         offset="1"
         style="stop-color:#ef2929;stop-opacity:1;" />
    </linearGradient>
    <linearGradient
       id="linearGradient3702">
      <stop
         id="stop3704"
         offset="0"
         style="stop-color:black;stop-opacity:0;" />
      <stop
         style="stop-color:black;stop-opacity:1;"
         offset="0.5"
         id="stop3710" />
      <stop
         id="stop3706"
         offset="1"
         style="stop-color:black;stop-opacity:0;" />
    </linearGradient>
    <linearGradient
       id="linearGradient2833"
       inkscape:collect="always">
      <stop
         id="stop2835"
         offset="0"
         style="stop-color:white;stop-opacity:1;" />
      <stop
         id="stop2837"
         offset="1"
         style="stop-color:white;stop-opacity:0.56273764" />
    </linearGradient>
    <linearGradient
       inkscape:collect="always"
       xlink:href="#linearGradient2551"
       id="linearGradient2463"
       x1="18.431738"
       y1="23.974861"
       x2="48.287315"
       y2="39.115234"
       gradientUnits="userSpaceOnUse"
       gradientTransform="translate(-1.7733934)" />
  </defs>
  <sodipodi:namedview
     inkscape:window-y="-9"
     inkscape:window-x="-9"
     inkscape:window-height="1001"
     inkscape:window-width="1920"
     inkscape:document-units="px"
     inkscape:grid-bbox="true"
     showgrid="true"
     inkscape:current-layer="text2185"
     inkscape:cy="27.486921"
     inkscape:cx="38.588196"
     inkscape:zoom="12.205805"
     inkscape:pageshadow="2"
     inkscape:pageopacity="1"
     borderopacity="1.0"
     bordercolor="#666666"
     pagecolor="#ededed"
     id="base"
     showguides="true"
     inkscape:guide-bbox="true"
     inkscape:pagecheckerboard="0"
     inkscape:window-maximized="1"
     inkscape:showpageshadow="false">
    <inkscape:grid
       type="xygrid"
       id="grid26571"
       empspacing="4" />
    <sodipodi:guide
       position="1,47"
       orientation="1,0"
       id="guide26573" />
    <sodipodi:guide
       position="47,47"
       orientation="0,-1"
       id="guide26575" />
    <sodipodi:guide
       position="47,1"
       orientation="1,0"
       id="guide26577" />
    <sodipodi:guide
       position="1,1"
       orientation="0,-1"
       id="guide26579" />
  </sodipodi:namedview>
  <metadata
     id="metadata4">
    <rdf:RDF>
      <cc:Work
         rdf:about="">
        <dc:format>image/svg+xml</dc:format>
        <dc:type
           rdf:resource="http://purl.org/dc/dcmitype/StillImage" />
        <dc:title>Calendar</dc:title>
        <dc:creator>
          <cc:Agent>
            <dc:title>Jakub Steiner</dc:title>
          </cc:Agent>
        </dc:creator>
        <dc:source>http://jimmac.musichall.cz</dc:source>
        <dc:subject>
          <rdf:Bag>
            <rdf:li>calendar</rdf:li>
            <rdf:li>date</rdf:li>
            <rdf:li>time</rdf:li>
            <rdf:li>cal</rdf:li>
          </rdf:Bag>
        </dc:subject>
        <cc:license
           rdf:resource="http://creativecommons.org/licenses/by/2.0/" />
        <dc:description>adapted for gramps</dc:description>
        <dc:contributor>
          <cc:Agent>
            <dc:title>Benny Malengier</dc:title>
          </cc:Agent>
        </dc:contributor>
      </cc:Work>
      <cc:License
         rdf:about="http://creativecommons.org/licenses/by/2.0/">
        <cc:permits
           rdf:resource="http://web.resource.org/cc/Reproduction" />
        <cc:permits
           rdf:resource="http://web.resource.org/cc/Distribution" />
        <cc:requires
           rdf:resource="http://web.resource.org/cc/Notice" />
        <cc:requires
           rdf:resource="http://web.resource.org/cc/Attribution" />
        <cc:permits
           rdf:resource="http://web.resource.org/cc/DerivativeWorks" />
        <cc:requires
           rdf:resource="http://web.resource.org/cc/ShareAlike" />
      </cc:License>
    </rdf:RDF>
  </metadata>
  <g
     inkscape:groupmode="layer"
     inkscape:label="gramps-event"
     id="layer1">
    <g
       id="g4328"
       transform="translate(-0.06099098,-1.4973203)">
      <ellipse
         id="path2549"
         style="color:#000000;display:inline;overflow:visible;visibility:visible;opacity:1;fill:url(#radialGradient2557);fill-opacity:1;fill-rule:evenodd;stroke:none;stroke-width:0.817429;stroke-linecap:butt;stroke-linejoin:miter;stroke-miterlimit:4;stroke-dasharray:none;stroke-dashoffset:0;stroke-opacity:1;marker:none;marker-start:none;marker-mid:none;marker-end:none"
         cx="24.060991"
         cy="40.560776"
         rx="23"
         ry="7.9364572"
         inkscape:label="shadow" />
      <g
         id="g4348"
         transform="matrix(0.9743479,0,0,0.9743479,0.61721495,2.1957895)">
        <path
           sodipodi:nodetypes="ccccccc"
           id="path1316"
           d="m 1.0606192,40.391604 c -0.24350364,1.13635 0.6899267,2.313283 2.2321158,2.2727 h 41.111514 c 1.461021,-0.04058 1.948029,-1.379854 1.623358,-2.47562 L 37.099143,7.4374583 H 7.5540473 Z"
           style="fill:#a7a7a7;fill-opacity:1;fill-rule:evenodd;stroke:#656565;stroke-width:1.13635px;stroke-linecap:butt;stroke-linejoin:miter;stroke-opacity:1" />
        <path
           sodipodi:nodetypes="ccccccccc"
           id="path2575"
           d="M 5.9530156,31.730217 H 40.307816 c 0.974081,0 1.75827,0.763952 1.75827,1.712896 l 1.50815,5.455542 c 0,0.948944 -0.784188,1.712896 -1.75827,1.712896 H 4.9475816 c -0.974082,0 -1.7582709,-0.763952 -1.7582709,-1.712896 l 1.0054339,-5.455542 c 0,-0.948944 0.7841889,-1.712896 1.758271,-1.712896 z"
           style="color:#000000;font-family:'Bitstream Vera Sans';display:inline;overflow:visible;visibility:visible;opacity:0.108571;fill:#000000;fill-opacity:1;fill-rule:evenodd;stroke:#000000;stroke-width:0.930879;stroke-linecap:butt;stroke-linejoin:miter;stroke-miterlimit:4;stroke-dasharray:none;stroke-dashoffset:0;stroke-opacity:1;marker:none;marker-start:none;marker-mid:none;marker-end:none" />
        <path
           style="fill:none;fill-opacity:1;fill-rule:evenodd;stroke:#ffffff;stroke-width:1.13635px;stroke-linecap:butt;stroke-linejoin:miter;stroke-opacity:0.344633"
           d="M 2.4136717,39.683656 C 2.1865593,40.743513 1.9606689,41.4787 2.9533458,41.4787 H 44.219523 c 1.040961,0 0.842885,-0.840547 0.540068,-1.862552 L 36.188635,8.623114 H 8.6323376 Z"
           id="path2520"
           sodipodi:nodetypes="ccccccc" />
        <path
           style="color:#000000;font-family:'Bitstream Vera Sans';display:inline;overflow:visible;visibility:visible;opacity:1;fill:#c5c5c5;fill-opacity:1;fill-rule:evenodd;stroke:#696969;stroke-width:1.13635;stroke-linecap:butt;stroke-linejoin:miter;stroke-miterlimit:4;stroke-dasharray:none;stroke-dashoffset:0;stroke-opacity:1;marker:none;marker-start:none;marker-mid:none;marker-end:none"
           d="M 6.4976655,30.732634 H 39.77888 c 0.943642,0 1.703325,0.740078 1.703325,1.659367 l 1.461021,5.285058 c 0,0.919288 -0.759683,1.659367 -1.703325,1.659367 H 5.5236513 c -0.943642,0 -1.7033251,-0.740079 -1.7033251,-1.659367 l 0.9740142,-5.285058 c 0,-0.919289 0.7596831,-1.659367 1.7033251,-1.659367 z"
           id="path2518"
           sodipodi:nodetypes="ccccccccc" />
        <path
           sodipodi:nodetypes="ccccccccc"
           id="rect2225"
           d="M 6.4976655,28.297598 H 39.77888 c 0.943642,0 1.703325,0.740079 1.703325,1.659368 l 1.461021,5.285057 c 0,0.919289 -0.759683,1.659368 -1.703325,1.659368 H 5.5236513 c -0.943642,0 -1.7033251,-0.740079 -1.7033251,-1.659368 l 0.9740142,-5.285057 c 0,-0.919289 0.7596831,-1.659368 1.7033251,-1.659368 z"
           style="color:#000000;display:inline;overflow:visible;visibility:visible;fill:url(#linearGradient2569);fill-opacity:1;fill-rule:evenodd;stroke:#696969;stroke-width:1.13635;stroke-linecap:butt;stroke-linejoin:miter;stroke-miterlimit:4;stroke-dashoffset:0;stroke-opacity:1;marker:none;marker-start:none;marker-mid:none;marker-end:none" />
        <g
           transform="matrix(1.0710654,0,0,1.0710654,-4.7117676,-1.1677911)"
           id="g2578"
           style="display:inline">
          <path
             style="fill:url(#linearGradient2582);fill-opacity:1;fill-rule:evenodd;stroke:#696969;stroke-width:1.06095px;stroke-linecap:butt;stroke-linejoin:miter;stroke-opacity:1"
             d="M 10.891973,11.500004 6.5714281,33.21429 c 0,0 26.2857149,1e-6 26.2857149,1e-6 12.584832,0 15.228163,-4.000001 15.228163,-4.000001 0,0 -3.357142,-1.178571 -4.785713,-6.142857 0,0 -3.060953,-11.571429 -3.060953,-11.571429 z"
             id="path2524"
             sodipodi:nodetypes="cczczcc" />
          <path
             sodipodi:nodetypes="cccczcc"
             id="path2571"
             d="M 11.803734,12.474609 7.8122567,32.239668 c 0,0 17.1442613,10e-7 24.4261253,10e-7 11.226639,0 14.110429,-2.850865 14.110429,-2.850865 0,0 -2.99306,-1.862842 -4.293392,-6.381499 0,0 -2.738563,-10.461267 -2.738563,-10.461267 z"
             style="fill:none;fill-opacity:1;fill-rule:evenodd;stroke:#ffffff;stroke-width:1.06095px;stroke-linecap:butt;stroke-linejoin:miter;stroke-opacity:1" />
        </g>
        <g
           aria-label="3"
           transform="scale(1.1277813,0.8866967)"
           id="text2185"
           style="font-weight:bold;line-height:0%;font-family:ae_Ouhod;display:inline;fill:url(#linearGradient2463);stroke-width:1px">
          <path
             d="m 24.249324,26.204328 q 0.447237,0.383347 0.711929,0.894475 0.264691,0.511129 0.264691,1.359967 0,0.958366 -0.383346,1.78895 -0.374219,0.830584 -1.159167,1.423858 -0.766692,0.575019 -1.807204,0.885347 -1.031384,0.301201 -2.510006,0.301201 -1.688549,0 -2.90248,-0.264691 -1.204803,-0.264692 -1.962368,-0.593275 v -2.984625 h 0.355964 q 0.784948,0.474619 1.871096,0.821457 1.095275,0.346837 1.998877,0.346837 0.529384,0 1.15004,-0.08215 0.620656,-0.09127 1.049638,-0.383346 0.33771,-0.228183 0.538511,-0.547638 0.2008,-0.328582 0.2008,-0.940111 0,-0.593274 -0.273819,-0.91273 -0.273818,-0.328582 -0.721056,-0.465492 -0.447237,-0.146036 -1.077021,-0.155164 -0.629783,-0.01825 -1.168293,-0.01825 h -0.748438 v -2.427861 h 0.77582 q 0.711929,0 1.259566,-0.04564 0.547638,-0.04564 0.930984,-0.209928 0.401601,-0.173419 0.602402,-0.456365 0.2008,-0.292073 0.2008,-0.848838 0,-0.410728 -0.209928,-0.657165 -0.209927,-0.255565 -0.529383,-0.401601 -0.355964,-0.164292 -0.839711,-0.219055 -0.483746,-0.05476 -0.830584,-0.05476 -0.857965,0 -1.861968,0.301201 -1.004002,0.292073 -1.944113,0.848838 h -0.33771 v -2.948116 q 0.748438,-0.301201 2.035386,-0.57502 1.286949,-0.282946 2.610407,-0.282946 1.286948,0 2.254441,0.228183 0.967494,0.219055 1.597277,0.593274 0.748438,0.447237 1.11353,1.086148 0.365092,0.63891 0.365092,1.496876 0,1.131785 -0.702802,2.02626 -0.702802,0.885347 -1.852841,1.131784 v 0.127782 q 0.465492,0.06389 0.985748,0.255564 0.520256,0.191674 0.949239,0.556765 z"
             style="font-size:18.6927px;line-height:125%"
             id="path3210" />
        </g>
        <g
           id="g2425"
           transform="matrix(1,0,0.10473,1,5.5833136,33.0745)">
          <g
             style="display:inline"
             inkscape:label="Text"
             id="layer5"
             transform="translate(-43.090055,-48.718143)">
            <path
               sodipodi:nodetypes="ccccccc"
               id="path7273"
               d="m 64.518598,26.593902 h 10.470035 l 1.419753,16.993988 -4.712949,-5.431418 -3.854961,5.489844 -1.359833,-16.276794 c -0.03645,-0.436257 -1.249818,-0.77562 -1.962045,-0.77562 z"
               style="display:inline;opacity:0.15;fill:#2e3436;fill-opacity:1;fill-rule:evenodd;stroke:none;stroke-width:1px;stroke-linecap:butt;stroke-linejoin:round;stroke-opacity:1" />
            <path
               sodipodi:nodetypes="cccccccc"
               id="path4386"
               d="m 68.658056,26.330982 5.849422,-0.13154 c 1.220472,0 1.647508,0.411738 1.746729,1.599393 l 1.286131,15.394596 -4.712948,-5.431419 -3.85496,5.489844 -1.255635,-15.465311 c -0.107468,-1.286341 0.941261,-1.455563 0.941261,-1.455563 z"
               style="fill:url(#linearGradient5351);fill-opacity:1;fill-rule:evenodd;stroke:#a40000;stroke-width:0.793853px;stroke-linecap:butt;stroke-linejoin:round;stroke-opacity:1" />
            <path
               id="path1934"
               style="display:inline;opacity:0.6;fill:none;fill-rule:evenodd;stroke:url(#linearGradient2839);stroke-width:1px"
               transform="matrix(0.7766059,0,0.0677948,0.8114825,57.700861,24.170736)"
               d="M 13.496594,3.3410742 C 13.424704,9.4607314 13.379665,15.816558 13.371095,20.992185 l 3.966797,-4.8125 c 0.359865,-0.437576 1.030068,-0.43661 1.388671,0.002 l 3.761344,4.798267 c -0.027,-5.481659 0.1623,-14.1321291 -0.01515,-17.5989315 0,0 -6.021837,-0.018605 -8.976162,-0.039946 z"
               sodipodi:nodetypes="ccccccc" />
          </g>
        </g>
        <path
           sodipodi:nodetypes="ccccccccc"
           id="rect2522"
           d="M 8.3997984,5.1647579 H 37.011742 c 0.992166,0 1.790915,0.7599575 1.790915,1.7039406 l 0.405839,2.4362038 c 0,0.9439827 -0.798748,1.7039407 -1.790915,1.7039407 H 7.993959 c -0.9921664,0 -1.7909143,-0.759958 -1.7909143,-1.7039407 L 6.608884,6.8686985 c 0,-0.9439831 0.798748,-1.7039406 1.7909144,-1.7039406 z"
           style="color:#000000;display:inline;overflow:visible;visibility:visible;fill:#9b9b9b;fill-opacity:1;fill-rule:evenodd;stroke:#696969;stroke-width:1.13635;stroke-linecap:butt;stroke-linejoin:miter;stroke-miterlimit:4;stroke-dashoffset:0;stroke-opacity:1;marker:none;marker-start:none;marker-mid:none;marker-end:none" />
        <circle
           transform="matrix(0.7775031,0,0,0.7775031,-0.4132141,-0.6878686)"
           id="path2559"
           style="color:#000000;display:inline;overflow:visible;visibility:visible;opacity:0.525714;fill:#fefefe;fill-opacity:1;fill-rule:evenodd;stroke:none;stroke-width:1;stroke-linecap:butt;stroke-linejoin:miter;stroke-miterlimit:4;stroke-dasharray:none;stroke-dashoffset:0;stroke-opacity:1;marker:none;marker-start:none;marker-mid:none;marker-end:none"
           cx="11.5"
           cy="9.9285717"
           r="1.3571428" />
        <path
           sodipodi:nodetypes="cc"
           id="path2561"
           d="M 10.762762,6.5992102 H 36.871737"
           style="opacity:0.302857;fill:none;fill-opacity:0.75;fill-rule:evenodd;stroke:#ffffff;stroke-width:1.12772px;stroke-linecap:round;stroke-linejoin:miter;stroke-opacity:1" />
      </g>
    </g>
  </g>
</svg>
